<svg xmlns="http://www.w3.org/2000/svg" width="409" height="355" fill="none"><path fill="#38BFF2" d="M319.591 231.593c-6.454 5.365-4.315 36.676-24.271 23.192-19.957-13.484 14.082-21.482 12.136-29.125-2.726-10.701-47.734 2.157-40.183-18.339 7.551-20.495 34.458 10.328 41.531 2.698 6.498-7.01-25.89-32.362-10.787-36.677 15.102-4.316 11.85 32.365 21.574 32.362 7.566-.003 6.158-35.059 20.069-22.654 13.912 12.406-16.498 24.628-12.517 32.326 3.024 5.851 26.967-8.594 25.889 4.89-1.079 13.484-26.653 5.684-33.441 11.327Z"/><path stroke="#1A2E35" stroke-linecap="round" stroke-linejoin="round" stroke-miterlimit="10" stroke-width="1.333" d="M315.276 215.558s14.564 17.653 12.945 65.657"/><path fill="#38BFF2" d="M286.905 240.535c2.581-5.193 23.971-8.737 11.731-20.009-12.24-11.271-12.201 12.886-17.65 12.793-7.628-.129-6.144-32.435-18.722-24.096-12.578 8.337 12.426 21.522 8.421 27.492-3.68 5.483-25.876-12.256-26.374-1.417-.499 10.84 23.644 2.818 25.189 9.356 1.202 5.087-22.59 9.717-12.036 17.096 10.553 7.378 13.932-15.011 19.741-13.559 4.414 1.103-1.487 19.498 7.406 16.627 8.893-2.87-.419-18.823 2.294-24.283Z"/><path fill="#000" d="M286.905 240.535c2.58-5.193 23.971-8.737 11.73-20.009-12.24-11.271-12.2 12.885-17.65 12.793-7.627-.129-6.143-32.435-18.721-24.096-12.579 8.337 12.425 21.522 8.42 27.492-3.679 5.483-25.876-12.257-26.373-1.417-.499 10.84 23.644 2.818 25.189 9.356 1.202 5.087-22.59 9.717-12.037 17.095 10.554 7.379 13.933-15.01 19.741-13.558 4.415 1.103-1.487 19.498 7.406 16.627 8.894-2.87-.419-18.823 2.295-24.283Z" opacity=".3"/><path stroke="#1A2E35" stroke-linecap="round" stroke-linejoin="round" stroke-miterlimit="10" stroke-width="1.333" d="M275.903 240.762s41.444-4.315 45.533 40.452"/><path fill="#38BFF2" d="M354.911 235.908c6.454 5.365 4.315 36.675 24.272 23.192 19.956-13.485-14.082-21.481-12.136-29.125 2.725-10.702 47.734 2.157 40.183-18.339-7.551-20.496-34.458 10.328-41.532 2.698-6.496-7.011 25.89-32.362 10.788-36.677-15.103-4.315-11.851 32.366-21.575 32.362-7.566-.004-6.157-35.06-20.068-22.654-13.912 12.405 16.498 24.627 12.517 32.325-3.025 5.852-26.968-8.593-25.89 4.891 1.079 13.483 26.654 5.684 33.441 11.327Z"/><path fill="#fff" d="M354.911 235.908c6.454 5.365 4.315 36.675 24.272 23.192 19.956-13.485-14.082-21.481-12.136-29.125 2.725-10.702 47.734 2.157 40.183-18.339-7.551-20.496-34.458 10.328-41.532 2.698-6.496-7.011 25.89-32.362 10.788-36.677-15.103-4.315-11.851 32.366-21.575 32.362-7.566-.004-6.157-35.06-20.068-22.654-13.912 12.405 16.498 24.627 12.517 32.325-3.025 5.852-26.968-8.593-25.89 4.891 1.079 13.483 26.654 5.684 33.441 11.327Z" opacity=".3"/><path stroke="#1A2E35" stroke-linecap="round" stroke-linejoin="round" stroke-miterlimit="10" stroke-width="1.333" d="M359.504 219.873s-18.877 25.204-23.192 67.275"/><path fill="#38BFF2" d="M345.989 352.958h-29.428a10.844 10.844 0 0 1-10.807-9.926l-4.627-54.368c-.538-6.329 4.455-11.765 10.808-11.765h38.68c6.352 0 11.346 5.436 10.807 11.765l-4.627 54.368a10.844 10.844 0 0 1-10.806 9.926Z"/><path stroke="#1A2E35" stroke-linecap="round" stroke-linejoin="round" stroke-miterlimit="10" stroke-width="1.333" d="M345.989 352.958h-29.428a10.844 10.844 0 0 1-10.807-9.926l-4.627-54.368c-.538-6.329 4.455-11.765 10.808-11.765h38.68c6.352 0 11.346 5.436 10.807 11.765l-4.627 54.368a10.844 10.844 0 0 1-10.806 9.926Z"/><path fill="#1A2E35" d="M125.64 274.874c9.833 0 38.245-6.419 38.245-6.419h-76.49s28.411 6.419 38.245 6.419Z"/><path stroke="#1A2E35" stroke-linecap="round" stroke-linejoin="round" stroke-miterlimit="10" stroke-width="1.333" d="M125.64 274.874c9.833 0 38.245-6.419 38.245-6.419h-76.49s28.411 6.419 38.245 6.419Z"/><path fill="#868686" stroke="#1A2E35" stroke-linecap="round" stroke-linejoin="round" stroke-miterlimit="10" stroke-width="1.333" d="M116.875 283.678h17.527v-12.014h-17.527v12.014Z"/><path fill="#9A9A9A" stroke="#1A2E35" stroke-linecap="round" stroke-linejoin="round" stroke-miterlimit="10" stroke-width="1.333" d="M114.283 335.34h22.714v-51.662h-22.714v51.662Z"/><path fill="#868686" d="M82.978 253.132h14.76a356.675 356.675 0 0 1-3.596-30.808H79.381a356.717 356.717 0 0 0 3.597 30.808Z"/><path stroke="#1A2E35" stroke-linecap="round" stroke-linejoin="round" stroke-miterlimit="10" stroke-width="1.333" d="M82.978 253.132h14.76a356.675 356.675 0 0 1-3.596-30.808H79.381a356.717 356.717 0 0 0 3.597 30.808Z"/><path fill="#868686" d="M60.556 131.339h63.63c7.479 0 12.373 6.314 10.928 13.758-4.074 22.907-6.482 45.554-7.275 68.816-.121 6.741-5.25 11.947-11.995 11.947H62.279c-6.745 0-12.817-5.206-13.683-11.947-2.58-23.015-3.512-45.658-2.791-68.816.354-7.444 7.27-13.758 14.751-13.758Z"/><path stroke="#1A2E35" stroke-linecap="round" stroke-linejoin="round" stroke-miterlimit="10" stroke-width="1.333" d="M60.556 131.339h63.63c7.479 0 12.373 6.314 10.928 13.758-4.074 22.907-6.482 45.554-7.275 68.816-.121 6.741-5.25 11.947-11.995 11.947H62.279c-6.745 0-12.817-5.206-13.683-11.947-2.58-23.015-3.512-45.658-2.791-68.816.354-7.444 7.27-13.758 14.751-13.758Z"/><path fill="#9A9A9A" d="M57.09 145.096c-.721 23.159.212 45.803 2.792 68.817.866 6.741 6.938 11.948 13.683 11.948h42.278c6.746 0 11.876-5.207 11.995-11.948.795-23.262 3.202-45.909 7.276-68.817 1.446-7.442-3.448-13.757-10.927-13.757H71.842c-7.482 0-14.398 6.315-14.751 13.757Z"/><path stroke="#1A2E35" stroke-linecap="round" stroke-linejoin="round" stroke-miterlimit="10" stroke-width="1.333" d="M57.09 145.096c-.721 23.159.212 45.803 2.792 68.817.866 6.741 6.938 11.948 13.683 11.948h42.278c6.746 0 11.876-5.207 11.995-11.948.795-23.262 3.202-45.909 7.276-68.817 1.446-7.442-3.448-13.757-10.927-13.757H71.842c-7.482 0-14.398 6.315-14.751 13.757Z"/><path fill="#1A2E35" d="M87.394 344.614a1.897 1.897 0 0 0 2.3 1.856c6.961-1.518 27.81-5.91 35.945-5.91 8.134 0 28.984 4.392 35.944 5.91a1.897 1.897 0 0 0 2.301-1.856 4.978 4.978 0 0 0-3.933-4.872c-8.148-1.75-26.739-5.556-34.312-5.556-7.572 0-26.164 3.806-34.312 5.556a4.979 4.979 0 0 0-3.933 4.872Z"/><path stroke="#1A2E35" stroke-linecap="round" stroke-linejoin="round" stroke-miterlimit="10" stroke-width="1.333" d="M87.394 344.614a1.897 1.897 0 0 0 2.3 1.856c6.961-1.518 27.81-5.91 35.945-5.91 8.134 0 28.984 4.392 35.944 5.91a1.897 1.897 0 0 0 2.301-1.856 4.978 4.978 0 0 0-3.933-4.872c-8.148-1.75-26.739-5.556-34.312-5.556-7.572 0-26.164 3.806-34.312 5.556a4.979 4.979 0 0 0-3.933 4.872Z"/><path fill="#868686" d="M163.885 350.855a3.543 3.543 0 1 0 0-7.087 3.543 3.543 0 0 0 0 7.087Zm0-10.084a6.541 6.541 0 1 1 0 13.082 6.541 6.541 0 0 1 0-13.082Z"/><path stroke="#1A2E35" stroke-linecap="round" stroke-linejoin="round" stroke-miterlimit="10" stroke-width="1.333" d="M163.885 350.855a3.543 3.543 0 1 0 0-7.087 3.543 3.543 0 0 0 0 7.087Zm0-10.084a6.541 6.541 0 1 1 0 13.082 6.541 6.541 0 0 1 0-13.082Z"/><path fill="#868686" d="M125.639 350.855a3.542 3.542 0 1 0 0-7.087 3.542 3.542 0 0 0 0 7.087Zm0-10.084a6.541 6.541 0 1 1 0 13.083 6.542 6.542 0 0 1 0-13.083Z"/><path stroke="#1A2E35" stroke-linecap="round" stroke-linejoin="round" stroke-miterlimit="10" stroke-width="1.333" d="M125.639 350.855a3.542 3.542 0 1 0 0-7.087 3.542 3.542 0 0 0 0 7.087Zm0-10.084a6.541 6.541 0 1 1 0 13.083 6.542 6.542 0 0 1 0-13.083Z"/><path fill="#868686" d="M88.187 350.855a3.543 3.543 0 1 0 0-7.086 3.543 3.543 0 0 0 0 7.086Zm0-10.084a6.542 6.542 0 1 1 .001 13.084 6.542 6.542 0 0 1 0-13.084Z"/><path stroke="#1A2E35" stroke-linecap="round" stroke-linejoin="round" stroke-miterlimit="10" stroke-width="1.333" d="M88.187 350.855a3.543 3.543 0 1 0 0-7.086 3.543 3.543 0 0 0 0 7.086Zm0-10.084a6.542 6.542 0 1 1 .001 13.084 6.542 6.542 0 0 1 0-13.084Z"/><path fill="#9A9A9A" d="M106.251 251.064a505.655 505.655 0 0 0 76.439-3.38c5.206-.7 9.416 2.864 9.416 8.088v1.249c0 5.225-4.21 10.133-9.416 10.834a505.654 505.654 0 0 1-76.439 3.378v-20.169Z"/><path stroke="#1A2E35" stroke-linecap="round" stroke-linejoin="round" stroke-miterlimit="10" stroke-width="1.333" d="M106.251 251.064a505.655 505.655 0 0 0 76.439-3.38c5.206-.7 9.416 2.864 9.416 8.088v1.249c0 5.225-4.21 10.133-9.416 10.834a505.654 505.654 0 0 1-76.439 3.378v-20.169Z"/><path fill="#868686" d="M66.16 267.52a582.662 582.662 0 0 0 47.504 3.985c3.889.109 7.044-3.005 7.044-6.885v-6.123c0-3.879-3.155-7.053-7.044-7.162a582.66 582.66 0 0 1-47.504-3.984c-3.863-.542-6.988 2.105-6.988 5.983v6.124c0 3.88 3.125 7.521 6.988 8.062Z"/><path stroke="#1A2E35" stroke-linecap="round" stroke-linejoin="round" stroke-miterlimit="10" stroke-width="1.333" d="M66.16 267.52a582.662 582.662 0 0 0 47.504 3.985c3.889.109 7.044-3.005 7.044-6.885v-6.123c0-3.879-3.155-7.053-7.044-7.162a582.66 582.66 0 0 1-47.504-3.984c-3.863-.542-6.988 2.105-6.988 5.983v6.124c0 3.88 3.125 7.521 6.988 8.062Z"/><path fill="#fff" d="M172.246 350.455c.047-3.562.777-10.692 4.968-19.887l5.473-19.725 17.06 7.287-4.798 15.104s14.666 6.997 20.08 8.886c3.607 1.256 14.394 3.731 13.861 8.351a2.487 2.487 0 0 1-2.488 2.488h-51.668a2.48 2.48 0 0 1-2.488-2.504Z"/><path stroke="#1A2E35" stroke-linecap="round" stroke-linejoin="round" stroke-miterlimit="10" stroke-width="1.333" d="M172.246 350.455c.047-3.562.777-10.692 4.968-19.887l5.473-19.725 17.06 7.287-4.798 15.104s14.666 6.997 20.08 8.886c3.607 1.256 14.394 3.731 13.861 8.351a2.487 2.487 0 0 1-2.488 2.488h-51.668a2.48 2.48 0 0 1-2.488-2.504Z"/><path fill="#38BFF2" d="M181.632 338.921c2.666 1.954 16.882 4.442 13.316 1.599-3.564-2.844 0-7.287 0-7.287s14.666 6.998 20.082 8.886c3.607 1.257 14.393 3.732 13.86 8.352a2.487 2.487 0 0 1-2.488 2.487h-51.668a2.48 2.48 0 0 1-2.489-2.503c.04-3.008.575-8.57 3.265-15.764 2.938.036 3.457 2.275 6.122 4.23Z"/><path stroke="#1A2E35" stroke-linecap="round" stroke-linejoin="round" stroke-miterlimit="10" stroke-width="1.333" d="M181.632 338.921c2.666 1.954 16.882 4.442 13.316 1.599-3.564-2.844 0-7.287 0-7.287s14.666 6.998 20.082 8.886c3.607 1.257 14.393 3.732 13.86 8.352a2.487 2.487 0 0 1-2.488 2.487h-51.668a2.48 2.48 0 0 1-2.489-2.503c.04-3.008.575-8.57 3.265-15.764 2.938.036 3.457 2.275 6.122 4.23Z"/><path fill="#fff" d="M159.904 352.958h-37.849c-.782 0-1.45-.554-1.598-1.322-.58-3.008-.448-9.735 2.966-18.669l.336-18.136 19.389 3.298-2.459 15.461s7.807 8.59 11.514 10.129c2.607 1.081 8.527 1.195 9.323 7.426.123.963-.651 1.813-1.622 1.813Z"/><path stroke="#1A2E35" stroke-linecap="round" stroke-linejoin="round" stroke-miterlimit="10" stroke-width="1.333" d="M159.904 352.958h-37.849c-.782 0-1.45-.554-1.598-1.322-.58-3.008-.448-9.735 2.966-18.669l.336-18.136 19.389 3.298-2.459 15.461s7.807 8.59 11.514 10.129c2.607 1.081 8.527 1.195 9.323 7.426.123.963-.651 1.813-1.622 1.813Z"/><path fill="#38BFF2" d="M129.813 338.989c4.001 2.798 6.95 3.131 5.084-1.066-1.865-4.196 5.791-4.333 5.791-4.333s7.807 8.589 11.515 10.129c2.606 1.08 8.528 1.195 9.323 7.425.123.964-.65 1.815-1.621 1.815h-37.849a1.625 1.625 0 0 1-1.598-1.323c-.58-3.009-.448-9.736 2.966-18.669 2.92.711 2.386 3.225 6.389 6.022Z"/><path stroke="#1A2E35" stroke-linecap="round" stroke-linejoin="round" stroke-miterlimit="10" stroke-width="1.333" d="M129.813 338.989c4.001 2.798 6.95 3.131 5.084-1.066-1.865-4.196 5.791-4.333 5.791-4.333s7.807 8.589 11.515 10.129c2.606 1.08 8.528 1.195 9.323 7.425.123.964-.65 1.815-1.621 1.815h-37.849a1.625 1.625 0 0 1-1.598-1.323c-.58-3.009-.448-9.736 2.966-18.669 2.92.711 2.386 3.225 6.389 6.022Z"/><path fill="#1A2E35" d="M163.673 214.528s3.811 3.91 19.41 6.397c15.597 2.488 47.94 10.308 47.584 23.102-.355 12.795-30.209 81.033-30.209 81.033s-14.927-2.844-21.858-7.109c0 0 12.016-48.691 21.024-61.485 0 0-40.443-4.975-62.809-14.216s-9.216-30.271-9.216-30.271l36.074 2.549Z"/><path stroke="#1A2E35" stroke-linecap="round" stroke-linejoin="round" stroke-miterlimit="10" stroke-width="1.333" d="M163.673 214.528s3.811 3.91 19.41 6.397c15.597 2.488 47.94 10.308 47.584 23.102-.355 12.795-30.209 81.033-30.209 81.033s-14.927-2.844-21.858-7.109c0 0 12.016-48.691 21.024-61.485 0 0-40.443-4.975-62.809-14.216s-9.216-30.271-9.216-30.271l36.074 2.549Z"/><path fill="#1A2E35" d="M138.263 212.732s-5.737 9.615-1.448 14.946c4.29 5.331 28.62 15.283 25.873 27.367-2.747 12.083-11.831 29.143-17.756 69.659 0 0-13.778-2.132-23.019-6.041 0 0-1.531-41.228 9.185-58.998 0 0-30.688-5.686-33.797-15.993-3.11-10.307 2.708-26.068 2.82-31.693l38.142.753Z"/><path stroke="#1A2E35" stroke-linecap="round" stroke-linejoin="round" stroke-miterlimit="10" stroke-width="1.333" d="M138.263 212.732s-5.737 9.615-1.448 14.946c4.29 5.331 28.62 15.283 25.873 27.367-2.747 12.083-11.831 29.143-17.756 69.659 0 0-13.778-2.132-23.019-6.041 0 0-1.531-41.228 9.185-58.998 0 0-30.688-5.686-33.797-15.993-3.11-10.307 2.708-26.068 2.82-31.693l38.142.753Z"/><path stroke="gray" stroke-linecap="round" stroke-linejoin="round" d="M156.751 227.999a13.09 13.09 0 0 1 2.124.035m-3.473-6.397s-6.303 1.854-8.775 10.067c-.196.651.615 1.149 1.093.665 1.312-1.326 3.359-2.956 6.07-3.811m48.8 27.464c0-3.466 14.927-5.331 10.928-8.53-3.998-3.198-13.061 7.197-13.061 7.197m-71.214 15.194c0-3.969 14.265-6.131 13.552-10.396-.712-4.265-9.775 4.132-9.775 4.132"/><path fill="#9A9A9A" d="m202.029 325.303-1.57 3.624a.929.929 0 0 1-1.057.542c-3.448-.777-17.822-4.173-22.869-7.793a.914.914 0 0 1-.338-.963l.979-4.04a.933.933 0 0 1 1.357-.597c2.267 1.239 8.592 4.192 22.87 7.952.554.145.855.75.628 1.275Z"/><path stroke="#1A2E35" stroke-linecap="round" stroke-linejoin="round" stroke-miterlimit="10" stroke-width="1.333" d="m202.029 325.303-1.57 3.624a.929.929 0 0 1-1.057.542c-3.448-.777-17.822-4.173-22.869-7.793a.914.914 0 0 1-.338-.963l.979-4.04a.933.933 0 0 1 1.357-.597c2.267 1.239 8.592 4.192 22.87 7.952.554.145.855.75.628 1.275Z"/><path fill="#9A9A9A" d="M146.668 322.318c.079-.545-.448-.996-.963-.805-1.022.38-2.754.676-5.355.081-3.953-.903-15.271-4.485-18.637-5.559a.734.734 0 0 0-.955.706v4.713c0 .293.165.554.432.672 2.647 1.179 16.813 7.247 24.227 5.594a.738.738 0 0 0 .557-.62l.694-4.782Z"/><path stroke="#1A2E35" stroke-linecap="round" stroke-linejoin="round" stroke-miterlimit="10" stroke-width="1.333" d="M146.668 322.318c.079-.545-.448-.996-.963-.805-1.022.38-2.754.676-5.355.081-3.953-.903-15.271-4.485-18.637-5.559a.734.734 0 0 0-.955.706v4.713c0 .293.165.554.432.672 2.647 1.179 16.813 7.247 24.227 5.594a.738.738 0 0 0 .557-.62l.694-4.782Z"/><path stroke="gray" stroke-linecap="round" stroke-linejoin="round" stroke-width="1.333" d="M135.266 223.628c.135 1.46.593 2.862 1.548 4.05 3.13 3.888 16.92 10.235 23.089 18.074m-23.972-27.546a18.693 18.693 0 0 0-.543 2.401"/><path stroke="#1A2E35" stroke-linecap="round" stroke-linejoin="round" stroke-miterlimit="10" stroke-width="1.333" d="M217.587 344.518s-1.066 1.688-1.866 5.065h-38.506s-.103-2.582-2.143-4.398m-24.39-.667s-5.331.4-7.33 5.065h-20.125s-1.066-2.399-1.066-4.398"/><path fill="#38BFF2" d="M182.241 154.226a393.11 393.11 0 0 1-1.509 5.57c-5.331 19.192-12.261 55.71-12.261 55.71-34.119 7.197-70.104 0-70.104 0-.196-7.962.773-18.462 1.853-29.492-5.595-1.548-9.63-6.713-9.85-15.289-.266-10.396 1.618-29.113 2.666-37.851.923-7.69.267-12.262 12.177-18.088 5.968-3.446 15.879-5.076 28.073-6.702 23.99-3.198 41.301 1.649 47.446 4.265 4.87-1.282 6.225 4.437 6.225 4.437 2.699-2.044 5.831 6.594 5.831 6.594 7.892 10.07 14.099 27.025 16.162 33.072a7.034 7.034 0 0 0 2.41 3.317c5.598 4.268 2.486 9.545 2.486 9.545l-11.462 3.513s-5.552 1.445-9.795-5.858c-3.549-6.109-9.349-16.465-10.348-12.743Z"/><path fill="#000" d="M200.273 168.007s.267-5.33 4.532-6.263c4.265-.933-1.2-2.525-4.532-1.728-3.332.795-2.564-2.137-5.413-6.935-2.85-4.798-4.249-8.591-6.682-5.824-2.433 2.766-4.91 3.147-5.937 6.969-1.026 3.821 4.038 12.742 4.038 12.742l7.956 6.171 4.039 2.265h6.033l2.06-5.214-6.094-2.183Z" opacity=".3"/><path stroke="#1A2E35" stroke-linecap="round" stroke-linejoin="round" stroke-miterlimit="10" stroke-width="1.333" d="M182.242 154.226a393.018 393.018 0 0 1-1.51 5.57c-5.331 19.192-12.26 55.71-12.26 55.71-34.119 7.197-70.104 0-70.104 0-.196-7.962.773-18.462 1.853-29.492-5.596-1.548-9.63-6.713-9.85-15.289-.266-10.396 1.618-29.114 2.666-37.851.922-7.69.266-12.262 12.176-18.089 5.969-3.446 15.879-5.075 28.074-6.701 23.989-3.198 41.301 1.649 47.445 4.265 4.871-1.283 6.226 4.437 6.226 4.437 2.698-2.044 5.831 6.594 5.831 6.594 7.891 10.07 14.099 27.025 16.162 33.072a7.042 7.042 0 0 0 2.409 3.317c5.598 4.268 2.487 9.545 2.487 9.545l-11.462 3.513s-5.553 1.445-9.795-5.858c-3.55-6.109-9.349-16.465-10.348-12.743Z"/><path fill="#000" d="M98.369 215.506c-.142-5.76.33-12.859 1.007-20.515-1.162 16.231 32.648 21.31 33.714 12.513 1.066-8.802-32.868-21.49-14.403-17.054 16.114 3.87 47.334.172 55.018-.831-2.951 13.868-5.232 25.887-5.232 25.887-34.119 7.197-70.104 0-70.104 0Zm15.502-81.566s4.824 14.127 4.815 21.591c-.011 7.456 13.534 12.466 13.558 12.476-7.253-1.479-14.314-3.429-17.689-4.404a2.594 2.594 0 0 1-1.871-2.723c.665-7.652 1.386-17.956 1.186-26.94h.001Z" opacity=".3"/><path stroke="#1A2E35" stroke-linecap="round" stroke-linejoin="round" stroke-miterlimit="10" d="M186.71 130.383s.162 10.162-3.556 19.502c-.346.866.638 1.656 1.396 1.113 1.829-1.309 4.416-3.978 6.755-9.353m-95.07 32.278c2.813-9.328 7.681-11.665 11.454-11.899.607-.038.809-.831.276-1.12-2.191-1.186-6.464-2.123-11.73 3.689"/><path fill="#9A9A9A" d="M150.322 147.219a1.602 1.602 0 1 0 3.205-.001 1.602 1.602 0 0 0-3.205.001Z"/><path stroke="#1A2E35" stroke-linecap="round" stroke-linejoin="round" stroke-miterlimit="10" d="M150.322 147.219a1.602 1.602 0 1 0 3.205-.001 1.602 1.602 0 0 0-3.205.001Z"/><path fill="#9A9A9A" d="M148.151 165.367a1.602 1.602 0 1 0 3.203 0 1.602 1.602 0 0 0-3.203 0Z"/><path stroke="#1A2E35" stroke-linecap="round" stroke-linejoin="round" stroke-miterlimit="10" d="M148.151 165.367a1.602 1.602 0 1 0 3.203 0 1.602 1.602 0 0 0-3.203 0Z"/><path fill="#9A9A9A" d="M142.795 209.105a1.603 1.603 0 1 0 3.202 0 1.603 1.603 0 0 0-3.202 0Z"/><path stroke="#1A2E35" stroke-linecap="round" stroke-linejoin="round" stroke-miterlimit="10" stroke-width="1.333" d="M142.795 209.105a1.603 1.603 0 1 0 3.202 0 1.603 1.603 0 0 0-3.202 0Z"/><path fill="#fff" d="M173.412 177.255s5.237 4.996 2.746 5.074c-2.489.078-5.64-3.342-8.528-3.742-2.89-.399 1.775-2.165 1.775-2.165l4.007.833Z"/><path stroke="#1A2E35" stroke-linecap="round" stroke-linejoin="round" stroke-miterlimit="10" stroke-width="1.333" d="M173.412 177.255s5.237 4.996 2.746 5.074c-2.489.078-5.64-3.342-8.528-3.742-2.89-.399 1.775-2.165 1.775-2.165l4.007.833Z"/><path fill="#fff" d="M142.843 171.643a2.3 2.3 0 0 1 1.737-.577c2.566.205 9.914.763 12.696.591 4.919-.303 19.427-3.376 19.427-3.376a2.236 2.236 0 0 1 1.009.057l8.984 2.639c.327.097.628.267.88.498l5.437 4.997c.18.166.331.359.448.573l1.126 2.065a2.225 2.225 0 0 1-.394 2.655l-8.998.281a2.225 2.225 0 0 1-1.52-.535l-2.664-2.285a2.298 2.298 0 0 1-.451-.531c-.657-1.053-3.168-4.58-7.149-4.239 0 0 8.521 4.532 6.922 6.397-1.599 1.866-8.13-3.465-10.262-2.932-2.087.522-2.275 5.763-13.88 3.869a3.629 3.629 0 0 0-1.552.075l-10.554 2.952a2.44 2.44 0 0 1-3.02-1.753c-.79-3.088-1.511-8.423 1.778-11.421Z"/><path stroke="#1A2E35" stroke-linecap="round" stroke-linejoin="round" stroke-miterlimit="10" stroke-width="1.333" d="M142.843 171.643a2.3 2.3 0 0 1 1.737-.577c2.566.205 9.914.763 12.696.591 4.919-.303 19.427-3.376 19.427-3.376a2.236 2.236 0 0 1 1.009.057l8.984 2.639c.327.097.628.267.88.498l5.437 4.997c.18.166.331.359.448.573l1.126 2.065a2.225 2.225 0 0 1-.394 2.655l-8.998.281a2.225 2.225 0 0 1-1.52-.535l-2.664-2.285a2.298 2.298 0 0 1-.451-.531c-.657-1.053-3.168-4.58-7.149-4.239 0 0 8.521 4.532 6.922 6.397-1.599 1.866-8.13-3.465-10.262-2.932-2.087.522-2.275 5.763-13.88 3.869a3.629 3.629 0 0 0-1.552.075l-10.554 2.952a2.44 2.44 0 0 1-3.02-1.753c-.79-3.088-1.511-8.423 1.778-11.421Z"/><path fill="#fff" d="m175.449 170.191 2.264.382a6.05 6.05 0 0 1 2.975 1.411l2.352 2.059c.415.363.778.78 1.079 1.24l1.544 2.362c.17.26.362.504.571.735.917 1.01 3.44 4.012.714 3.612"/><path stroke="#1A2E35" stroke-linecap="round" stroke-linejoin="round" stroke-miterlimit="10" stroke-width="1.333" d="m175.449 170.191 2.264.382a6.05 6.05 0 0 1 2.975 1.411l2.352 2.059c.415.363.778.78 1.079 1.24l1.544 2.362c.17.26.362.504.571.735.917 1.01 3.44 4.012.714 3.612"/><path fill="#fff" d="m181.813 170.991 2.34.632a4.498 4.498 0 0 1 1.941 1.098l1.824 1.752c.173.166.333.345.477.538l2.994 3.976s1.603 2.816 0 2.866"/><path stroke="#1A2E35" stroke-linecap="round" stroke-linejoin="round" stroke-miterlimit="10" stroke-width="1.333" d="m181.813 170.991 2.34.632a4.498 4.498 0 0 1 1.941 1.098l1.824 1.752c.173.166.333.345.477.538l2.994 3.976s1.603 2.816 0 2.866m-77.588-50.175c.394 9.47-.395 20.9-1.118 29.202a2.597 2.597 0 0 0 1.871 2.723c4.656 1.344 16.329 4.551 25.843 5.806"/><path stroke="#1A2E35" stroke-linecap="round" stroke-linejoin="round" stroke-miterlimit="10" d="M113.27 125.067a67.57 67.57 0 0 1 .344 3.409m-3.923-13.395c1.223 1.052 2.123 3.001 2.77 5.565"/><path fill="#fff" d="M163.077 108.75s-.666-2.132-4.265-3.332c-3.598-1.199-16.049-3.121-22.456 0-6.409 3.121 5.864 20.059 5.864 20.059l5.73 7.862 5.064 3.799 2.267-6.754 2.932-3.042s6.33-5.197 5.797-10.329c-.533-5.13-.933-8.263-.933-8.263Z"/><path fill="#38BFF2" d="M136.906 108.046c8.464 26.571 15.927 27.759 15.927 27.759 2.488-9.773 4.62-7.64 7.997-13.748 2.709-4.899 1.792-11.111 1.325-13.374a1.855 1.855 0 0 0-.964-1.283c-8.398-4.275-18.675-2.703-22.913-1.767-1.078.238-1.707 1.362-1.372 2.413Zm-5.285.262c1-3.506 5.574-4.489 5.574-4.489 21.857-3.732 26.478 4.213 26.478 4.213 4.442 12.387 0 22.351 0 22.351s-6.22-2.574-7.286 0c-1.066 2.574-3.021 8.088-3.021 8.088s-4.265-2.133-7.641-6.575c-3.376-4.443-11.317 0-11.317 0-5.097-8.885-2.787-23.588-2.787-23.588Z"/><path fill="#fff" d="M136.906 108.046c8.464 26.572 15.927 27.759 15.927 27.759 2.488-9.773 4.62-7.64 7.997-13.747 2.709-4.9 1.792-11.111 1.325-13.375a1.853 1.853 0 0 0-.964-1.283c-8.398-4.275-18.674-2.703-22.913-1.766-1.078.237-1.707 1.361-1.372 2.412Zm-5.285.263c1-3.507 5.574-4.49 5.574-4.49 21.858-3.732 26.479 4.214 26.479 4.214 4.441 12.386 0 22.351 0 22.351s-6.221-2.575-7.287 0c-1.066 2.574-3.021 8.087-3.021 8.087s-4.264-2.132-7.641-6.574c-3.376-4.443-11.317 0-11.317 0-5.097-8.886-2.787-23.588-2.787-23.588Z" opacity=".4"/><path stroke="#1A2E35" stroke-linecap="round" stroke-linejoin="round" stroke-miterlimit="10" stroke-width="1.333" d="M136.906 108.046c8.463 26.571 15.927 27.759 15.927 27.759 2.487-9.773 4.62-7.64 7.996-13.748 2.71-4.899 1.793-11.111 1.326-13.374a1.855 1.855 0 0 0-.964-1.283c-8.399-4.275-18.675-2.703-22.913-1.767-1.078.238-1.707 1.362-1.372 2.413Zm-5.286.262c1.001-3.506 5.575-4.489 5.575-4.489 21.857-3.732 26.478 4.213 26.478 4.213 4.442 12.387 0 22.351 0 22.351s-6.22-2.574-7.286 0c-1.067 2.574-3.021 8.088-3.021 8.088s-4.265-2.133-7.642-6.575c-3.375-4.443-11.316 0-11.316 0-5.097-8.885-2.788-23.588-2.788-23.588v0Z"/><path fill="#1A2E35" d="M167.305 67.705s18.836 3.772 8.462 16.024c-11.505 13.588-8.462-16.024-8.462-16.024Z"/><path stroke="#1A2E35" stroke-linecap="round" stroke-linejoin="round" stroke-miterlimit="10" stroke-width="1.333" d="M167.305 67.705s18.836 3.772 8.462 16.024c-11.505 13.588-8.462-16.024-8.462-16.024Z"/><path fill="#fff" d="M174.733 97.599s4.478-18.126-4.052-26.834c-8.529-8.706-17.77-10.484-24.701-6.219-6.93 4.265-9.773 14.927-8.707 20.436 1.067 5.509.546 25.234 10.047 33.408 9.5 8.175 15.348 6.16 21.63-4.976 4.128-7.316 6.103-9.418 5.783-15.815Z"/><path stroke="#1A2E35" stroke-linecap="round" stroke-linejoin="round" stroke-miterlimit="10" stroke-width="1.333" d="M174.733 97.599s4.478-18.126-4.052-26.834c-8.529-8.706-17.77-10.484-24.701-6.219-6.93 4.265-9.773 14.927-8.707 20.436 1.067 5.509.546 25.234 10.047 33.408 9.5 8.175 15.348 6.16 21.63-4.976 4.128-7.316 6.103-9.418 5.783-15.815Z"/><path fill="#1A2E35" d="M141.719 94.045s7.161-7.108 9.354-15.46c2.193-8.351 3.437-9.774 11.611-5.686 8.175 4.087 20.929-1.415 17.593-11.728-3.507-10.84-14.216 3.198-24.523-.356s-17.617 2.843-17.633 12.261c0 0-6.229 6.042.016 21.68l3.582-.71Z"/><path stroke="#1A2E35" stroke-linecap="round" stroke-linejoin="round" stroke-miterlimit="10" stroke-width="1.333" d="M141.719 94.045s7.161-7.108 9.354-15.46c2.193-8.351 3.437-9.774 11.611-5.686 8.175 4.087 20.929-1.415 17.593-11.728-3.507-10.84-14.216 3.198-24.523-.356s-17.617 2.843-17.633 12.261c0 0-6.229 6.042.016 21.68l3.582-.71Z"/><path fill="#fff" d="M143.966 92.853s-1.812-9.936-6.852-9.015c-5.039.923-1.436 15.583 4.492 13.984"/><path stroke="#1A2E35" stroke-linecap="round" stroke-linejoin="round" stroke-miterlimit="10" stroke-width="1.333" d="M143.966 92.853s-1.812-9.936-6.852-9.015c-5.039.923-1.436 15.583 4.492 13.984"/><path fill="#fff" d="M167.927 96.222s1.975 9.221 1.333 10.806c-.643 1.586-6.748.372-6.748.372"/><path stroke="#1A2E35" stroke-linecap="round" stroke-linejoin="round" stroke-miterlimit="10" stroke-width="1.333" d="M167.927 96.222s1.975 9.221 1.333 10.806c-.643 1.586-6.748.372-6.748.372"/><path fill="#fff" d="M161.663 111.416s-4.781 1.888-8.988-4.388l8.988 4.388Z"/><path stroke="#1A2E35" stroke-linecap="round" stroke-linejoin="round" stroke-miterlimit="10" stroke-width="1.333" d="M161.663 111.416s-4.781 1.888-8.988-4.388"/><path fill="#1A2E35" d="M171.198 96.991c-.178.86.046 1.632.501 1.727.454.094.969-.525 1.147-1.385.178-.86-.046-1.632-.501-1.726-.455-.095-.968.525-1.147 1.384Zm-11.693-.94c-.178.86.046 1.633.501 1.727.454.094.969-.526 1.147-1.385.179-.859-.045-1.632-.501-1.727-.455-.094-.969.526-1.147 1.385Z"/><path stroke="#1A2E35" stroke-linecap="round" stroke-linejoin="round" stroke-miterlimit="10" stroke-width="1.333" d="M168.74 96.592c-.241 2.415 2.187 4.636 5.423 4.959 3.236.323 6.055-1.373 6.297-3.788.241-2.416-2.302-3.482-5.538-3.805-3.236-.323-5.94.218-6.182 2.634Zm-15.089-1.509c-.242 2.416 2.187 4.636 5.423 4.959 3.236.324 6.055-1.372 6.296-3.787.242-2.416-2.301-3.481-5.537-3.804-3.236-.324-5.94.217-6.182 2.632Z"/><path fill="#fff" d="m168.74 96.592-3.37-.337 3.37.337Z"/><path stroke="#1A2E35" stroke-linecap="round" stroke-linejoin="round" stroke-miterlimit="10" stroke-width="1.333" d="m168.74 96.592-3.37-.337"/><path fill="#fff" d="m154.066 93.874-12.395-7.31 12.395 7.31Z"/><path stroke="#1A2E35" stroke-linecap="round" stroke-linejoin="round" stroke-miterlimit="10" stroke-width="1.333" d="m154.066 93.874-12.395-7.31"/><path fill="#fff" d="m139.545 105.242-.584 1.42.584-1.42Z"/><path stroke="#1A2E35" stroke-linecap="round" stroke-linejoin="round" stroke-miterlimit="10" stroke-width="1.333" d="m139.545 105.242-.584 1.42"/><path fill="#fff" d="M175.728 92.694s-1.887-2.402-4.204-1.245l4.204 1.245Z"/><path stroke="#1A2E35" stroke-linecap="round" stroke-linejoin="round" stroke-miterlimit="10" stroke-width="1.333" d="M175.728 92.694s-1.887-2.402-4.204-1.245"/><path fill="#fff" d="M156.41 91.62s3.317-3.16 6.508-.943l-6.508.944Z"/><path stroke="#1A2E35" stroke-linecap="round" stroke-linejoin="round" stroke-miterlimit="10" stroke-width="1.333" d="M156.41 91.62s3.317-3.16 6.508-.943"/><path stroke="gray" stroke-linecap="round" stroke-linejoin="round" stroke-width="1.333" d="M171.541 62.367c-5.043 1.604-13.532 3.561-20.468 1.468-10.602-3.199-7.004 8.739-9.403 12.033m34.237-15.098s-.847.373-2.281.89m-10.457 6.65a30.797 30.797 0 0 1-1.773-.605m13.337-.804s-2.253 3.493-9.534 1.938m-17.542 4.899c-.448 3.034-1.596 7.433-4.52 11.422"/><path stroke="gray" stroke-linecap="round" stroke-linejoin="round" stroke-width="1.333" d="M147.935 69.966s.027.717-.066 1.908"/><path fill="#000" d="M138.451 184.343c.858.768.359 2.184-.793 2.19-7.199.033-26.624.081-34.157-.348-9.33-.533-2.209-10.685 5.293-6.809 6.913 3.573 21.456-2.375 29.657 4.967Z" opacity=".3"/><path fill="#fff" d="M219.644 174.348s-4.358-11.611-15.296-9.768c-11.05 1.862-2.579 11.001 2.68 11.818 0 0 .799-3.188 12.616-2.05Z"/><path stroke="#1A2E35" stroke-linecap="round" stroke-linejoin="round" stroke-miterlimit="10" stroke-width="1.333" d="M219.644 174.348s-4.358-11.611-15.296-9.768c-11.05 1.862-2.579 11.001 2.68 11.818 0 0 .799-3.188 12.616-2.05Z"/><path fill="#fff" d="M228.907 180.936c1.443 1.444 4.906 1.567 2.577-1.56-2.577-3.46-5.482-4.62-7.464-5.505-5.189-2.316-7.212-1.852-11.906-2.881-4.695-1.028-5.572.881-7.197 1.771-3.868 2.121-4.798 2.489-5.776 4.621-.976 2.133-2.043 4.908.978 4.908 2.754 0 2.932-4.553 5.598-4.375 2.665.177 3.998 4.375 5.864 4.375h.711c1.599 0 1.686-1.331.707-3.422a67.346 67.346 0 0 0-2.04-3.974s2.318 1.055 3.599 3.776c1.279 2.721 1.515 3.867 3.867 3.867 2.352 0 2.19-1.747-.15-5.606 0 0 2.107 1.158 3.26 3.336 1.153 2.18 1.753 2.023 3.264 2.023 1.975 0 1.842-3.265-1.668-5.397 0 0 .778-.954 5.776 4.043Z"/><path stroke="#1A2E35" stroke-linecap="round" stroke-linejoin="round" stroke-miterlimit="10" stroke-width="1.333" d="M228.907 180.936c1.443 1.444 4.906 1.567 2.577-1.56-2.577-3.46-5.482-4.62-7.464-5.505-5.189-2.316-7.212-1.852-11.906-2.881-4.695-1.028-5.572.881-7.197 1.771-3.868 2.121-4.798 2.489-5.776 4.621-.976 2.133-2.043 4.908.978 4.908 2.754 0 2.932-4.553 5.598-4.375 2.665.177 3.998 4.375 5.864 4.375h.711c1.599 0 1.686-1.331.707-3.422a67.346 67.346 0 0 0-2.04-3.974s2.318 1.055 3.599 3.776c1.279 2.721 1.515 3.867 3.867 3.867 2.352 0 2.19-1.747-.15-5.606 0 0 2.107 1.158 3.26 3.336 1.153 2.18 1.753 2.023 3.264 2.023 1.975 0 1.842-3.265-1.668-5.397 0 0 .778-.954 5.776 4.043Z"/><path fill="#fff" d="M215.199 173.139s1.38-.066 2.246 2.266l-2.246-2.266Z"/><path stroke="#1A2E35" stroke-linecap="round" stroke-linejoin="round" stroke-miterlimit="10" d="M215.199 173.139s1.38-.066 2.246 2.266M40 72.754a220.131 220.131 0 0 0-19.627 17.422M47.44 67.16c-1.304.937-2.6 1.89-3.887 2.859m11.317-7.971c-1.338.88-2.667 1.775-3.988 2.687m58.534-28.49a216.357 216.357 0 0 0-50.217 23.029m61.864-26.307c-2.159.543-4.311 1.12-6.458 1.73m18.436-4.387c-2.344.451-4.681.942-7.01 1.47m17.686-3.252c-2.022.287-4.039.6-6.054.944m70.36-.514a219.144 219.144 0 0 0-59.709-1.031m68.507 2.581a216.85 216.85 0 0 0-5.455-1.004m13.989 2.867a219.846 219.846 0 0 0-5.46-1.233m15.957 4.025a217.504 217.504 0 0 0-5.574-1.552m69.024 32.054a216.331 216.331 0 0 0-57.574-28.69m66.146 35.019a217.619 217.619 0 0 0-5.046-3.805m13.642 10.839a221.992 221.992 0 0 0-5.544-4.62m17.548 15.768a222.135 222.135 0 0 0-7.639-7.284"/><path fill="#38BFF2" d="M245.094 51.227c0 14.649 11.876 26.524 26.524 26.524 14.65 0 26.526-11.875 26.526-26.524 0-14.65-11.876-26.524-26.526-26.524-14.648 0-26.524 11.874-26.524 26.524Z"/><path fill="#fff" d="M245.501 50.593c0 14.649 11.876 26.524 26.525 26.524s26.525-11.875 26.525-26.524c0-14.65-11.876-26.524-26.525-26.524s-26.525 11.874-26.525 26.524Z" opacity=".3"/><path stroke="#1A2E35" stroke-linecap="round" stroke-linejoin="round" stroke-miterlimit="10" d="M245.095 51.227c0 14.649 11.875 26.524 26.524 26.524 14.65 0 26.525-11.875 26.525-26.524 0-14.65-11.875-26.524-26.525-26.524-14.649 0-26.524 11.874-26.524 26.524Z"/><path fill="#38BFF2" d="M323.016 125.897h15.303c7.042 0 12.75-5.708 12.75-12.75V97.844c0-7.041-5.708-12.75-12.75-12.75h-15.303c-7.041 0-12.75 5.709-12.75 12.75v15.303c0 7.042 5.709 12.75 12.75 12.75Z"/><path stroke="#1A2E35" stroke-linecap="round" stroke-linejoin="round" stroke-miterlimit="10" d="M323.016 125.897h15.303c7.042 0 12.75-5.708 12.75-12.75V97.844c0-7.041-5.708-12.75-12.75-12.75h-15.303c-7.041 0-12.75 5.709-12.75 12.75v15.303c0 7.042 5.709 12.75 12.75 12.75Z"/><path fill="#fff" d="M345.454 106.482v-1.972l-8.158-3.519v2.133l5.625 2.372-5.625 2.372v2.133l8.158-3.519Z"/><path stroke="#1A2E35" stroke-linecap="round" stroke-linejoin="round" stroke-miterlimit="10" d="M345.454 106.482v-1.972l-8.158-3.519v2.133l5.625 2.372-5.625 2.372v2.133l8.158-3.519Z"/><path fill="#fff" d="M328.256 96.166h-2.532l7.357 18.659h2.531l-7.356-18.659Z"/><path stroke="#1A2E35" stroke-linecap="round" stroke-linejoin="round" stroke-miterlimit="10" d="M328.256 96.166h-2.532l7.357 18.659h2.531l-7.356-18.659Z"/><path fill="#fff" d="m324.039 107.868-5.625-2.372 5.625-2.372v-2.133l-8.157 3.519v1.972l8.157 3.519v-2.133Z"/><path stroke="#1A2E35" stroke-linecap="round" stroke-linejoin="round" stroke-miterlimit="10" d="m324.039 107.868-5.625-2.372 5.625-2.372v-2.133l-8.157 3.519v1.972l8.157 3.519v-2.133Z"/><path fill="#38BFF2" d="M60.795 45.225c0 12.504 10.136 22.64 22.639 22.64 12.504 0 22.641-10.136 22.641-22.64 0-12.504-10.137-22.64-22.641-22.64-12.503 0-22.64 10.136-22.64 22.64Z"/><path fill="#000" d="M60.648 45.664c0 12.504 10.136 22.64 22.639 22.64 12.504 0 22.641-10.136 22.641-22.64 0-12.504-10.137-22.64-22.641-22.64-12.503 0-22.64 10.136-22.64 22.64Z" opacity=".2"/><path stroke="#1A2E35" stroke-linecap="round" stroke-linejoin="round" stroke-miterlimit="10" d="M60.795 45.225c0 12.504 10.136 22.64 22.639 22.64 12.504 0 22.641-10.136 22.641-22.64 0-12.504-10.137-22.64-22.641-22.64-12.503 0-22.64 10.136-22.64 22.64Z"/><path fill="#38BFF2" d="M170.218 50.458h20.457c8.008 0 14.5-6.493 14.5-14.5V15.5c0-8.009-6.492-14.5-14.5-14.5h-20.457c-8.009 0-14.501 6.491-14.501 14.5v20.456c0 8.008 6.492 14.5 14.501 14.5Z"/><path stroke="#1A2E35" stroke-linecap="round" stroke-linejoin="round" stroke-miterlimit="10" d="M170.218 50.458h20.457c8.008 0 14.5-6.493 14.5-14.5V15.5c0-8.009-6.492-14.5-14.5-14.5h-20.457c-8.009 0-14.501 6.491-14.501 14.5v20.456c0 8.008 6.492 14.5 14.501 14.5Z"/><path fill="#38BFF2" d="M1 93.108c0 12.471 10.109 22.581 22.581 22.581s22.58-10.11 22.58-22.581c0-12.472-10.108-22.582-22.58-22.582-12.472 0-22.58 10.11-22.58 22.582Z"/><path fill="#fff" d="M1.594 93.564c0 12.472 10.108 22.582 22.581 22.582 12.472 0 22.58-10.11 22.58-22.582 0-12.471-10.108-22.581-22.58-22.581-12.473 0-22.581 10.11-22.581 22.581Z" opacity=".3"/><path stroke="#1A2E35" stroke-linecap="round" stroke-linejoin="round" stroke-miterlimit="10" d="M1 93.108c0 12.471 10.11 22.581 22.582 22.581 12.472 0 22.58-10.11 22.58-22.581 0-12.472-10.108-22.582-22.58-22.582-12.472 0-22.581 10.11-22.581 22.582Z"/><path fill="#868686" d="M290.53 353.137h3.952l1.066-157.006h-5.018v157.006Z"/><path stroke="#1A2E35" stroke-linecap="round" stroke-linejoin="round" stroke-miterlimit="10" stroke-width="1.333" d="M290.53 353.137h3.952l1.066-157.006h-5.018v157.006Z"/><path fill="#9A9A9A" d="M286.579 353.137h3.952V196.131h-5.018l1.066 157.006Z"/><path stroke="#1A2E35" stroke-linecap="round" stroke-linejoin="round" stroke-miterlimit="10" stroke-width="1.333" d="M286.579 353.137h3.952V196.131h-5.018l1.066 157.006Z"/><path fill="#1A2E35" stroke="#1A2E35" stroke-linecap="round" stroke-linejoin="round" stroke-miterlimit="10" stroke-width="1.333" d="M64.75 196.131h271.039v-9.613H64.75v9.613Z"/><path fill="#868686" stroke="#1A2E35" stroke-linecap="round" stroke-linejoin="round" stroke-miterlimit="10" stroke-width="1.333" d="M8.105 196.131h60.688v-9.613H8.105v9.613Z"/><path fill="#38BFF2" stroke="#1A2E35" stroke-miterlimit="10" stroke-width="1.333" d="M52.45 211.979h269.458V196.13H52.45v15.849Z"/><path fill="#38BFF2" d="M52.45 211.979H21.073V196.13H52.45v15.849Z"/><path fill="#000" d="M52.45 211.979H21.073v-15.848H52.45v15.848Z" opacity=".3"/><path stroke="#1A2E35" stroke-miterlimit="10" stroke-width="1.333" d="M52.45 211.979H21.073V196.13H52.45v15.849Z"/><path fill="#868686" d="M52.45 353.137h3.95l1.066-157.006h-5.017v157.006Z"/><path stroke="#1A2E35" stroke-linecap="round" stroke-linejoin="round" stroke-miterlimit="10" stroke-width="1.333" d="M52.45 353.137h3.95l1.066-157.006h-5.017v157.006Z"/><path fill="#9A9A9A" d="M48.498 353.137h3.952V196.131h-5.018l1.066 157.006Z"/><path stroke="#1A2E35" stroke-linecap="round" stroke-linejoin="round" stroke-miterlimit="10" stroke-width="1.333" d="M48.498 353.137h3.952V196.131h-5.018l1.066 157.006Z"/><path fill="#868686" d="M321.907 353.137h3.952l1.066-157.006h-5.018v157.006Z"/><path stroke="#1A2E35" stroke-linecap="round" stroke-linejoin="round" stroke-miterlimit="10" stroke-width="1.333" d="M321.907 353.137h3.952l1.066-157.006h-5.018v157.006Z"/><path fill="#9A9A9A" d="M317.955 353.137h3.952V196.131h-5.018l1.066 157.006Z"/><path stroke="#1A2E35" stroke-linecap="round" stroke-linejoin="round" stroke-miterlimit="10" stroke-width="1.333" d="M317.955 353.137h3.952V196.131h-5.018l1.066 157.006Z"/><path fill="#868686" d="M21.073 353.137h3.95l1.067-157.006h-5.017v157.006Z"/><path stroke="#1A2E35" stroke-linecap="round" stroke-linejoin="round" stroke-miterlimit="10" stroke-width="1.333" d="M21.073 353.137h3.95l1.067-157.006h-5.017v157.006Z"/><path fill="#9A9A9A" d="M17.122 353.137h3.951V196.131h-5.017l1.066 157.006Z"/><path stroke="#1A2E35" stroke-linecap="round" stroke-linejoin="round" stroke-miterlimit="10" stroke-width="1.333" d="M17.122 353.137h3.951V196.131h-5.017l1.066 157.006Z"/><path fill="#868686" d="M160.638 185.452h31.766c.649 0 1.176-.527 1.176-1.177v-2.622l-34.119 1.066v1.556c0 .65.528 1.177 1.177 1.177Z"/><path stroke="#1A2E35" stroke-linecap="round" stroke-linejoin="round" stroke-miterlimit="10" stroke-width="1.333" d="M160.638 185.452h31.766c.649 0 1.176-.527 1.176-1.177v-2.622l-34.119 1.066v1.556c0 .65.528 1.177 1.177 1.177Z"/><path fill="#9A9A9A" d="M197.124 185.452h63.86c1.023 0 2.021-.758 2.332-1.772l13.708-44.504c.376-1.221-.383-2.304-1.613-2.304h-63.862c-1.022 0-2.02.758-2.332 1.772l-13.708 44.504c-.376 1.22.383 2.304 1.615 2.304Z"/><path stroke="#1A2E35" stroke-linecap="round" stroke-linejoin="round" stroke-miterlimit="10" stroke-width="1.333" d="M197.124 185.452h63.86c1.023 0 2.021-.758 2.332-1.772l13.708-44.504c.376-1.221-.383-2.304-1.613-2.304h-63.862c-1.022 0-2.02.758-2.332 1.772l-13.708 44.504c-.376 1.22.383 2.304 1.615 2.304Z"/><path fill="#868686" d="m192.64 183.148 13.708-44.504c.312-1.014 1.31-1.772 2.333-1.772h2.869c-1.023 0-2.021.758-2.333 1.772l-13.707 44.504c-.377 1.22.382 2.304 1.614 2.304h-2.869c-1.232 0-1.991-1.084-1.615-2.304Z"/><path stroke="#1A2E35" stroke-linecap="round" stroke-linejoin="round" stroke-miterlimit="10" stroke-width="1.333" d="m192.64 183.148 13.708-44.504c.312-1.014 1.31-1.772 2.333-1.772h2.869c-1.023 0-2.021.758-2.333 1.772l-13.707 44.504c-.377 1.22.382 2.304 1.614 2.304h-2.869c-1.232 0-1.991-1.084-1.615-2.304Z"/><path fill="#fff" d="M232.317 161.161c-.268 2.182 1.283 3.951 3.465 3.951 2.181 0 4.168-1.769 4.435-3.951.268-2.181-1.283-3.95-3.465-3.95-2.181 0-4.168 1.769-4.435 3.95Z"/><path stroke="#1A2E35" stroke-linecap="round" stroke-linejoin="round" stroke-miterlimit="10" stroke-width="1.333" d="M232.317 161.161c-.268 2.182 1.283 3.951 3.465 3.951 2.181 0 4.168-1.769 4.435-3.951.268-2.181-1.283-3.95-3.465-3.95-2.181 0-4.168 1.769-4.435 3.95Z"/><path fill="#fff" d="M87.322 53.035h.413c.902 0 1.365-.411 1.365-1.828V47.34c0-.928.335-1.907 1.572-2.267v-.051c-1.237-.361-1.572-1.342-1.572-2.269v-3.866c0-1.417-.463-1.829-1.365-1.829h-.413v-2.32h1.443c1.597 0 2.861.902 2.861 2.861v4.741c0 1.186.334 1.547 1.623 1.547v2.32c-1.289 0-1.623.36-1.623 1.545v4.743c0 1.958-1.264 2.86-2.86 2.86h-1.444v-2.32Z"/><path stroke="#1A2E35" stroke-linecap="round" stroke-linejoin="round" stroke-miterlimit="10" d="M87.043 53.307h.439c.958 0 1.45-.428 1.45-1.898v-4.014c0-.963.356-1.98 1.67-2.354v-.053c-1.314-.375-1.67-1.393-1.67-2.355V38.62c0-1.471-.492-1.9-1.45-1.9h-.439v-2.408h1.533c1.697 0 3.039.937 3.039 2.97v4.923c0 1.23.355 1.605 1.723 1.605v2.407c-1.368 0-1.723.375-1.723 1.605v4.924c0 2.032-1.343 2.969-3.039 2.969h-1.532v-2.408Z"/><path fill="#fff" d="M80.47 53.035h-.412c-.902 0-1.366-.411-1.366-1.828V47.34c0-.928-.335-1.907-1.572-2.267v-.051c1.237-.361 1.572-1.342 1.572-2.269v-3.866c0-1.417.464-1.829 1.366-1.829h.413v-2.32h-1.444c-1.597 0-2.86.902-2.86 2.861v4.741c0 1.186-.335 1.547-1.624 1.547v2.32c1.29 0 1.623.36 1.623 1.545v4.743c0 1.958 1.264 2.86 2.861 2.86h1.444v-2.32Z"/><path stroke="#1A2E35" stroke-linecap="round" stroke-linejoin="round" stroke-miterlimit="10" d="M80.749 53.307h-.438c-.959 0-1.45-.428-1.45-1.898v-4.014c0-.963-.357-1.98-1.67-2.354v-.053c1.313-.375 1.67-1.393 1.67-2.355V38.62c0-1.471.492-1.9 1.45-1.9h.438v-2.408h-1.533c-1.696 0-3.038.937-3.038 2.97v4.923c0 1.23-.355 1.605-1.724 1.605v2.407c1.369 0 1.724.375 1.724 1.605v4.924c0 2.032 1.342 2.969 3.038 2.969h1.533v-2.408Z"/><mask id="a" width="20" height="20" x="173.021" y="19.29" fill="#000" maskUnits="userSpaceOnUse"><path fill="#fff" d="M173.021 19.29h20v20h-20z"/><path fill-rule="evenodd" d="M185.382 32.921v2.741c0 1.867-3.226 2.343-5.005 2.343h-3.178c-1.496-.105-3.178-.595-3.178-2.343v-3.998a4.9 4.9 0 0 1 4.899-4.9h.941a6.475 6.475 0 0 0 6.474-6.474h2.86c.781.185 2.344 1.557 2.344 5.56 0 4.387-4.59 5.88-8.977 5.88h-2.9v.993h5.72v.198Zm-1.986 3.099a.636.636 0 1 0 0-1.272.636.636 0 0 0 0 1.272Z" clip-rule="evenodd"/></mask><path fill="#fff" fill-rule="evenodd" d="M185.382 32.921v2.741c0 1.867-3.226 2.343-5.005 2.343h-3.178c-1.496-.105-3.178-.595-3.178-2.343v-3.998a4.9 4.9 0 0 1 4.899-4.9h.941a6.475 6.475 0 0 0 6.474-6.474h2.86c.781.185 2.344 1.557 2.344 5.56 0 4.387-4.59 5.88-8.977 5.88h-2.9v.993h5.72v.198Zm-1.986 3.099a.636.636 0 1 0 0-1.272.636.636 0 0 0 0 1.272Z" clip-rule="evenodd"/><path fill="#1A2E35" d="m177.199 38.005-.07.998.035.002h.035v-1Zm9.136-17.715v-1h-1v1h1Zm2.86 0 .231-.973-.114-.027h-.117v1Zm-9.533 11.44v-1h-1v1h1Zm0 .993h-1v1h1v-1Zm5.72 0h1v-1h-1v1Zm1 2.939v-2.74h-2v2.74h2Zm-6.005 3.343c.952 0 2.324-.124 3.494-.525 1.08-.37 2.511-1.176 2.511-2.818h-2c0 .225-.182.59-1.16.926-.887.304-2.018.417-2.845.417v2Zm-3.178 0h3.178v-2h-3.178v2Zm-4.178-3.343c0 1.277.653 2.143 1.525 2.651.805.47 1.782.633 2.583.69l.141-1.995c-.695-.05-1.307-.184-1.717-.422-.343-.2-.532-.453-.532-.924h-2Zm0-3.998v3.998h2v-3.998h-2Zm5.899-5.9a5.9 5.9 0 0 0-5.899 5.9h2a3.9 3.9 0 0 1 3.899-3.9v-2Zm.941 0h-.941v2h.941v-2Zm5.474-5.474a5.474 5.474 0 0 1-5.474 5.474v2a7.474 7.474 0 0 0 7.474-7.474h-2Zm3.86-1h-2.86v2h2.86v-2Zm3.344 6.56c0-4.177-1.65-6.186-3.113-6.533l-.462 1.946.006.002c.004 0 .009.003.017.005a1.141 1.141 0 0 1 .257.166c.157.134.353.353.544.693.384.681.751 1.845.751 3.722h2Zm-9.977 6.88c2.281 0 4.711-.384 6.611-1.416 1.952-1.06 3.366-2.834 3.366-5.463h-2c0 1.758-.882 2.924-2.321 3.706-1.493.81-3.55 1.173-5.656 1.173v2Zm-2.9 0h2.9v-2h-2.9v2Zm1-.007v-.993h-2v.993h2Zm4.72-1h-5.72v2h5.72v-2Zm1 1.198v-.198h-2v.198h2Zm-3.35 2.463c0-.201.163-.364.364-.364v2c.903 0 1.636-.733 1.636-1.636h-2Zm.364.364a.364.364 0 0 1-.364-.364h2c0-.903-.733-1.636-1.636-1.636v2Zm.365-.364a.365.365 0 0 1-.365.364v-2c-.903 0-1.635.733-1.635 1.636h2Zm-.365-.364c.201 0 .365.163.365.364h-2c0 .903.732 1.636 1.635 1.636v-2Z" mask="url('#a')"/><mask id="b" width="20" height="20" x="166.223" y="12.968" fill="#000" maskUnits="userSpaceOnUse"><path fill="#fff" d="M166.223 12.968h20v20h-20z"/><path fill-rule="evenodd" d="M173.863 19.337v-2.741c0-1.867 3.225-2.344 5.005-2.344h3.177c1.497.106 3.178.596 3.178 2.344v3.998a4.9 4.9 0 0 1-4.899 4.9h-.94a6.474 6.474 0 0 0-6.474 6.474h-2.86c-.782-.185-2.344-1.557-2.344-5.561 0-4.387 4.59-5.879 8.977-5.879h2.9v-.993h-5.72v-.198Zm1.986-3.099a.636.636 0 1 0 0 1.272.636.636 0 0 0 0-1.272Z" clip-rule="evenodd"/></mask><path fill="#fff" fill-rule="evenodd" d="M173.863 19.337v-2.741c0-1.867 3.225-2.344 5.005-2.344h3.177c1.497.106 3.178.596 3.178 2.344v3.998a4.9 4.9 0 0 1-4.899 4.9h-.94a6.474 6.474 0 0 0-6.474 6.474h-2.86c-.782-.185-2.344-1.557-2.344-5.561 0-4.387 4.59-5.879 8.977-5.879h2.9v-.993h-5.72v-.198Zm1.986-3.099a.636.636 0 1 0 0 1.272.636.636 0 0 0 0-1.272Z" clip-rule="evenodd"/><path fill="#1A2E35" d="M173.863 16.596h-1 1Zm0 2.74h1-1Zm8.182-5.084.071-.997-.035-.003h-.036v1Zm3.178 2.344h1-1Zm0 3.998h-1 1ZM172.91 31.968v1h1v-1h-1Zm-2.86 0-.231.973.114.027h.117v-1Zm9.533-11.44v1h1v-1h-1Zm0-.993h1v-1h-1v1Zm-5.72 0h-1v1h1v-1Zm-1-2.94v2.742h2v-2.741h-2Zm6.005-3.343c-.953 0-2.324.125-3.494.526-1.08.37-2.511 1.176-2.511 2.818h2c0-.225.181-.591 1.159-.926.887-.304 2.019-.418 2.846-.418v-2Zm3.177 0h-3.177v2h3.177v-2Zm4.178 3.344c0-1.277-.652-2.143-1.524-2.652-.805-.469-1.782-.633-2.583-.69l-.141 1.996c.695.049 1.307.183 1.717.422.343.2.531.453.531.924h2Zm0 3.998v-3.998h-2v3.998h2Zm-5.899 5.9a5.9 5.9 0 0 0 5.899-5.9h-2a3.9 3.9 0 0 1-3.899 3.9v2Zm-.94 0h.94v-2h-.94v2Zm-5.474 5.474a5.474 5.474 0 0 1 5.474-5.475v-2a7.474 7.474 0 0 0-7.474 7.475h2Zm-3.86 1h2.86v-2h-2.86v2Zm-3.344-6.561c0 4.177 1.649 6.187 3.113 6.534l.461-1.946-.005-.002a.504.504 0 0 1-.077-.034 1.174 1.174 0 0 1-.198-.138 2.527 2.527 0 0 1-.544-.693c-.383-.68-.75-1.844-.75-3.721h-2Zm9.977-6.879c-2.281 0-4.712.384-6.611 1.416-1.952 1.06-3.366 2.834-3.366 5.463h2c0-1.758.882-2.924 2.321-3.706 1.492-.81 3.55-1.173 5.656-1.173v-2Zm2.9 0h-2.9v2h2.9v-2Zm-1 .007v.993h2v-.993h-2Zm-4.72 1h5.72v-2h-5.72v2Zm-1-1.198v.198h2v-.198h-2Zm3.35-2.463a.364.364 0 0 1-.364.364v-2c-.903 0-1.636.733-1.636 1.636h2Zm-.364-.365c.201 0 .364.164.364.365h-2c0 .903.733 1.635 1.636 1.635v-2Zm-.365.365c0-.201.164-.365.365-.365v2c.903 0 1.635-.732 1.635-1.635h-2Zm.365.364a.365.365 0 0 1-.365-.364h2c0-.903-.732-1.636-1.635-1.636v2Z" mask="url('#b')"/><rect width="18.626" height="4.777" x="14.782" y="82.912" fill="#fff" stroke="#1A2E35" rx="1.5"/><rect width="18.626" height="6.036" x="14.782" y="90.466" fill="#fff" stroke="#1A2E35" rx="1.5"/><rect width="18.626" height="4.777" x="14.782" y="99.279" fill="#fff" stroke="#1A2E35" rx="1.5"/><path fill="#fff" stroke="#1A2E35" d="M258.311 50.236c-.119.545-.011 1.035.328 1.498m-.328-1.498 17.386-2.979-1.494-1.501m-15.892 4.48.091-.42m-.091.42.091-.42m.237 1.917c.441.602 12.398 12.457 12.74 12.632.363.186.956.216 1.399.071m-14.139-12.703.403-.295-.403.295Zm14.139 12.703c.238-.078 1.413-1.216 6.586-6.378 4.827-4.817 6.331-6.36 6.446-6.61.208-.453.202-1.092-.015-1.522m-13.017 14.51-.156-.475c-.029.01-.047.02-.047.02l.015-.01m.188.465-.156-.475a.64.64 0 0 1-.032.01m13.205-14.045c-.223-.443-12.529-12.757-12.932-12.94m12.932 12.94-.447.224.447-.224Zm-12.932-12.94c-.349-.158-.941-.204-1.318-.1m1.318.1-.206.456.206-.456Zm-1.318-.1c-.235.064-.561.348-1.739 1.517m1.739-1.518.132.483m-.132-.483.132.483m-1.871 1.035-1.095 1.087.353.353m.742-1.44.352.355c.591-.587.956-.939 1.2-1.151.247-.216.316-.239.319-.24m-1.871 1.036.352.355-1.094 1.085m0 0-.355.353 1.228 1.23 1.58 1.583m-2.453-3.166 1.227 1.23 1.39 1.392m-.164.544.352-.072c1.337-.274 2.698 1.105 2.414 2.445l-.08.374m-2.686-2.747-.1-.49.264-.053m-.164.543.305-.303.049-.05-.075-.075-.115-.116m2.522 3.29.324-.322.031-.03.046.047.145.145m-.546.16.489.105.057-.265m2.635 2.648.318-.024c.567-.042 1.093.052 1.549.306.456.255.806.651 1.053 1.154.188.381.298.757.297 1.154 0 .397-.11.773-.298 1.155-.965 1.962-3.714 1.974-4.68.01a2.78 2.78 0 0 1-.222-.568l1.983-3.187Zm0 0-1.332-1.339-1.303-1.31m2.635 2.649-5.707-10.875m.913 26.603a1.602 1.602 0 0 1-.516.054 1.288 1.288 0 0 1-.436-.09l-.002-.002a28.05 28.05 0 0 1-.54-.5c-.359-.339-.854-.817-1.441-1.39a703.874 703.874 0 0 1-4.257-4.189 742.68 742.68 0 0 1-4.276-4.27c-.593-.599-1.096-1.11-1.464-1.49a38.943 38.943 0 0 1-.571-.604 1.671 1.671 0 0 1-.045-.052c-.257-.35-.33-.695-.242-1.096l.06-.276 4.238-4.247 3.988-3.997 1.206 1.205c.548.548.927.938 1.164 1.199a5.9 5.9 0 0 1 .167.192l-.016.107c-.016.127-.026.27-.03.41-.007.262.005.59.064.811.153.568.597 1.17 1.095 1.492l.272-.42-.272.42.128.083v7.019l-.126.078c-1.096.682-1.48 2.126-.924 3.3.456.965 1.315 1.51 2.383 1.512.226 0 .422-.007.624-.058.201-.051.379-.14.584-.25l-.236-.44.236.44c1.675-.897 1.901-3.072.462-4.312l-.19-.163-.001-3.505v-2.528l.554.554c.678.677 1.007 1.01 1.164 1.198l.013.015a2.36 2.36 0 0 0-.038.236 4.012 4.012 0 0 0-.027.433l-3.665-13.482c.117-.032.298-.047.5-.032.18.014.337.05.443.09a21.167 21.167 0 0 1 .562.514c.372.352.885.847 1.491 1.44a561.56 561.56 0 0 1 4.37 4.332 577.257 577.257 0 0 1 4.337 4.38c.595.61 1.093 1.125 1.449 1.501.178.189.318.34.416.45a3.892 3.892 0 0 1 .117.135c.13.286.136.735.001 1.045M272.59 63.97a3.645 3.645 0 0 0 .259-.213c.215-.19.539-.494 1.024-.963.966-.937 2.551-2.509 5.138-5.09a603.223 603.223 0 0 0 4.985-5.013c.496-.509.841-.87 1.068-1.12.113-.124.193-.216.246-.281.033-.04.048-.061.053-.068m0 0-.007.017.009-.02-.002.003Zm-13.682-8.758.088-.018c.869-.178 1.708.186 2.271.756.563.57.916 1.414.732 2.282l-.023.11m-16.347 4.222 4.342-4.351 3.988-3.998-8.33 8.349Zm17.05.21Z"/></svg>