<svg xmlns="http://www.w3.org/2000/svg" width="393" height="410" fill="none">
  <path fill="#38BFF2" stroke="#263238" stroke-linecap="round" stroke-linejoin="round" d="M331.068 213.121H62.526v113.124h268.542V213.121Z"></path>
  <path fill="#fff" stroke="#263238" stroke-miterlimit="10" d="M93.4 219.968H68.138v13.985H93.4v-13.985ZM324.851 288.157H285.06v13.985h39.791v-13.985ZM324.863 237.435h-24.564v13.984h24.564v-13.984ZM93.4 270.912H68.138v13.985H93.4v-13.985ZM88.592 254.063H68.138v13.984h20.454v-13.984ZM82.12 237.016H68.138V251h13.981v-13.984ZM99.978 237.016H85.996V251h13.982v-13.984ZM117.825 237.016h-13.982V251h13.982v-13.984ZM135.672 237.016H121.69V251h13.982v-13.984ZM153.531 237.016h-13.982V251h13.982v-13.984ZM171.377 237.016h-13.981V251h13.981v-13.984ZM189.224 237.016h-13.982V251h13.982v-13.984ZM207.083 237.016h-13.982V251h13.982v-13.984ZM224.93 237.016h-13.982V251h13.982v-13.984ZM242.788 237.016h-13.981V251h13.981v-13.984ZM260.635 237.016h-13.982V251h13.982v-13.984ZM278.482 237.016H264.5V251h13.982v-13.984ZM296.34 237.016h-13.982V251h13.982v-13.984ZM82.12 305.402H68.138v13.985h13.981v-13.985ZM99.978 305.402H85.996v13.985h13.982v-13.985ZM117.825 305.402h-13.982v13.985h13.982v-13.985ZM138.757 305.402H121.69v13.985h17.067v-13.985ZM228.015 305.402h-85.393v13.985h85.393v-13.985ZM288.552 305.402H274.57v13.985h13.982v-13.985ZM306.434 305.402h-13.982v13.985h13.982v-13.985ZM253.219 305.402h-21.712v13.985h21.712v-13.985ZM324.851 305.402H310.87v13.985h13.981v-13.985ZM106.544 254.063H92.562v13.984h13.982v-13.984ZM124.391 254.063h-13.982v13.984h13.982v-13.984ZM142.249 254.063h-13.981v13.984h13.981v-13.984ZM160.096 254.063h-13.982v13.984h13.982v-13.984ZM177.955 254.063h-13.981v13.984h13.981v-13.984ZM195.802 254.063H181.82v13.984h13.982v-13.984ZM213.649 254.063h-13.982v13.984h13.982v-13.984ZM231.507 254.063h-13.982v13.984h13.982v-13.984ZM249.354 254.063h-13.982v13.984h13.982v-13.984ZM267.202 254.063H253.22v13.984h13.982v-13.984ZM285.06 254.063h-13.982v13.984h13.982v-13.984ZM302.907 254.063h-13.982v13.984h13.982v-13.984ZM324.851 254.063v31.043h-13.982v-17.059h-4.098v-13.984h18.08ZM110.642 271.11H96.66v13.985h13.982V271.11ZM128.489 271.11h-13.982v13.985h13.982V271.11ZM146.336 271.11h-13.982v13.985h13.982V271.11ZM164.195 271.11h-13.982v13.985h13.982V271.11ZM182.041 271.11H168.06v13.985h13.981V271.11ZM199.9 271.11h-13.982v13.985H199.9V271.11ZM217.746 271.11h-13.981v13.985h13.981V271.11ZM235.594 271.11h-13.982v13.985h13.982V271.11ZM253.453 271.11h-13.982v13.985h13.982V271.11ZM271.299 271.11h-13.982v13.985h13.982V271.11ZM289.146 271.11h-13.982v13.985h13.982V271.11ZM307.004 271.11h-13.982v13.985h13.982V271.11ZM103.052 288.157H89.07v13.985h13.982v-13.985ZM120.898 288.157h-13.981v13.985h13.981v-13.985ZM138.757 288.157h-13.982v13.985h13.982v-13.985ZM156.604 288.157h-13.982v13.985h13.982v-13.985ZM174.462 288.157H160.48v13.985h13.982v-13.985ZM192.309 288.157h-13.982v13.985h13.982v-13.985ZM210.157 288.157h-13.982v13.985h13.982v-13.985ZM228.015 288.157h-13.982v13.985h13.982v-13.985ZM245.862 288.157H231.88v13.985h13.982v-13.985ZM263.708 288.157h-13.981v13.985h13.981v-13.985ZM281.567 288.157h-13.982v13.985h13.982v-13.985ZM110.642 220.807H96.66v13.984h13.982v-13.984ZM128.489 220.807h-13.982v13.984h13.982v-13.984ZM146.336 220.807h-13.982v13.984h13.982v-13.984ZM164.195 220.807h-13.982v13.984h13.982v-13.984ZM182.041 220.807H168.06v13.984h13.981v-13.984ZM199.9 220.807h-13.982v13.984H199.9v-13.984ZM217.746 220.807h-13.981v13.984h13.981v-13.984ZM235.594 220.807h-13.982v13.984h13.982v-13.984ZM253.453 220.807h-13.982v13.984h13.982v-13.984ZM271.299 220.807h-13.982v13.984h13.982v-13.984ZM289.146 220.807h-13.982v13.984h13.982v-13.984ZM307.004 220.807h-13.982v13.984h13.982v-13.984ZM324.851 220.807H310.87v13.984h13.981v-13.984ZM85.076 288.157H68.138v13.985h16.938v-13.985Z"></path>
  <path fill="#263238" d="m62.526 213.843 5.612-1.874h259.286l3.691 1.851-268.589.023Z"></path>
  <path fill="#fff" d="m297.68 347.869.139-51.479c.559-2.073 1.013-9.712 2.201-15.033 2.025-8.92-5.938-19.679-6.497-20.028-2.235-1.398-6.985-1.374-6.985-1.374s-4.656-5.31-8.813-6.987a20.79 20.79 0 0 0-8.917-1.106 42.607 42.607 0 0 0-10.594-6.416 8.715 8.715 0 0 0-8.918 1.677l-5.239 8.151a6.081 6.081 0 0 0 .711 7.592c2.491 2.445 5.681 1.304 7.287 1.304 2.224 0 3.062-2.515 3.062-2.515s.547 13.099 0 14.776c-.57 1.665-4.738 5.566-4.738 5.566l-13.97-18.433a133.904 133.904 0 0 1-12.539-20.703 10.162 10.162 0 0 0-1.571-2.445c-2.445-2.76-7.672-3.575-9.034 1.548a10.132 10.132 0 0 0 .221 4.937c5.821 17.211 13.248 30.217 20.012 43.771 4.017 8.046 2.527 7.953 4.529 11.586-.233.163-.117.466-.373.617-.978 3.913-1.664 7.837-2.654 11.749a53.586 53.586 0 0 0-4.459-14.182c.565-2.725.772-5.512.617-8.291a10.927 10.927 0 0 0-3.492-7.348 7.186 7.186 0 0 0-4.063-1.583 4.236 4.236 0 0 0-4.471 3.621 43.452 43.452 0 0 1-1.164 6.311 62.665 62.665 0 0 1-3.213 7.907c0 5.205 3.213 4.355 5.553 25.245 1.816 16.302 22.771 27.026 34.18 38.775L268 405c17-8 24-12 38.5-23l-8.82-34.131Z"></path><path fill="#92E3A9" d="M227.956 319.69c.14-.256.256-.513.373-.78a.884.884 0 0 0-.373.78ZM261.519 247.658a11.472 11.472 0 0 0-5.506-2.328l5.506 2.328ZM255.314 253.108l.07.582a.913.913 0 0 0-.07-.582Z"></path><g fill="#fff" opacity=".5"><path d="M227.956 319.69c.14-.256.256-.513.373-.78a.884.884 0 0 0-.373.78ZM261.519 247.658a11.472 11.472 0 0 0-5.506-2.328l5.506 2.328ZM255.314 253.108l.07.582a.92.92 0 0 0-.07-.582ZM261.729 303.609c-.524-1.304-3.062-5.054-4.541-2.457l4.541 2.457Z" opacity=".5"></path></g><path fill="#fff" d="M218.445 297.344a14.68 14.68 0 0 0-3.411 3.831l3.411-3.831Z"></path><path stroke="#263238" stroke-miterlimit="10" d="m268 405-13.395-39.956c-11.409-11.749-32.365-22.497-34.181-38.775-2.328-20.89-5.553-20.04-5.553-25.245a62.563 62.563 0 0 0 3.213-7.906 43.49 43.49 0 0 0 1.164-6.312 4.24 4.24 0 0 1 4.471-3.621 7.177 7.177 0 0 1 4.063 1.584 10.916 10.916 0 0 1 3.492 7.347 32.046 32.046 0 0 1-.617 8.291 53.545 53.545 0 0 1 4.459 14.183c.99-3.913 1.677-7.837 2.655-11.75.256-.151.139-.454.372-.617-2.002-3.633-.512-3.493-4.529-11.586-6.763-13.554-14.179-26.56-20.012-43.77a10.136 10.136 0 0 1-.221-4.938c1.362-5.123 6.589-4.308 9.034-1.548a10.196 10.196 0 0 1 1.572 2.445 133.85 133.85 0 0 0 12.538 20.703l13.97 18.433s4.168-3.901 4.738-5.566c.547-1.676 0-14.776 0-14.776s-.838 2.515-3.061 2.515c-1.607 0-4.797 1.164-7.288-1.304a6.078 6.078 0 0 1-.827-7.557l5.204-8.151a8.713 8.713 0 0 1 8.918-1.677 42.607 42.607 0 0 1 10.594 6.416 20.79 20.79 0 0 1 8.917 1.106c4.191 1.689 8.813 6.987 8.813 6.987s4.738 0 6.985 1.374c.559.349 8.522 11.108 6.496 20.028-1.164 5.321-1.641 12.96-2.2 15.033l-.14 51.479L307 382"></path>
  <path stroke="#263238" stroke-miterlimit="10" d="M270.088 253.678a91.696 91.696 0 0 1 3.167 23.289 12.59 12.59 0 0 0 .419 3.912 3.85 3.85 0 0 0 2.666 2.655M286.55 261.329c3.493 7.289-.081 23.568.175 24.72a4.14 4.14 0 0 0 1.967 2.795M256.537 252.677c-.407 2.329-.745 5.007-1.164 7.324a13.479 13.479 0 0 1-4.657-9.315M234.231 314.811l-2.514 1.106M234.872 316.825a14.544 14.544 0 0 0 0 5.892M249.587 295.062l2.782 5.019M254.942 276.699l2.771-3.912M293.908 295.062l-.839 3.074"></path><path stroke="#263238" stroke-miterlimit="10" d="M287.132 286.713a277.5 277.5 0 0 1 2.456-7.825M295.281 272.798a3.142 3.142 0 0 1 4.238 1.316M278.599 259.431a5.991 5.991 0 0 1 5.599 1.281M226.746 267.197a8.509 8.509 0 0 1 7.218-2.724M216.233 245.236a7.814 7.814 0 0 1 5.821-1.374M218.445 297.344a14.68 14.68 0 0 0-3.411 3.831M219.517 292.046c1.839-1.304 4.773 1.63 6.461.128a2.677 2.677 0 0 0 .57-2.515 8.797 8.797 0 0 1-.337-2.666M271.427 283.977a21.08 21.08 0 0 1 1.28 14.928M284.955 291.161a9.656 9.656 0 0 1-1.164 6.393"></path><path fill="#fff" d="M167.949 290.507c-.501-2.329-3.772-1.968-3.772-1.968-11.002.641-12.48 17.886-12.48 17.886l-3.947 11.819-1.164-17.769.116-22.904s3.33-21.915 1.851-25.35a5.014 5.014 0 0 0-4.552-3.33c-6.403-1.607-6.775 7.627-6.775 7.627l-5.402 18.84-2.282 20.319-1.839-.989s-.873-21.554-.501-21.915c.373-.361 2.585-14.905 2.585-14.905s1.164-2.701 2.712-6.148a7.467 7.467 0 0 0 0-6.16c-2.596-5.298-7.998-2.829-9.115 0a81.861 81.861 0 0 1-4.424 8.373l-6.17 16.872c.232 3.82-1.956 22.648-1.956 22.648l-2.224-1.001-3.574-11.062 2.724-11.33s5.949-6.521 4.913-10.363c-1.036-3.843-6.03-2.702-6.03-2.702l-10.082 12.052h-2.969l-6.985 8.873a56.218 56.218 0 0 0-1.641 29.518l1.606 7.487v48.405s-4.785 7.756-4.785 8.489c0 .338-4.528 8.554-7.287 16.181 12.022 7.861 25 14.5 40.5 21 4.412-12.424 11.934-29.402 14.787-32.5 5.658-6.16 16.741-17.979 16.741-17.979s12.584-20.226 14.063-26.956c1.164-5.519 4.168-15.533 5.192-18.969.238-.78.333-1.596.28-2.41-.082-1.816-.256-5.345-.256-8.454 0-4.494 2.619-8.931 2.142-11.225Z"></path>
  <path stroke="#263238" stroke-miterlimit="10" d="M74.5 388c3.5-8 8.411-19.16 8.411-19.498 0-.733 4.785-8.488 4.785-8.488V311.62l-1.607-7.44a56.22 56.22 0 0 1 1.607-29.449l6.985-8.873h2.969l10.081-12.051s5.053-1.165 6.031 2.701c.978 3.866-4.913 10.34-4.913 10.34l-2.724 11.33 3.574 11.062 2.223 1.001s2.189-18.828 1.956-22.648l6.17-16.872a81.95 81.95 0 0 0 4.424-8.372c1.164-2.83 6.52-5.299 9.116 0a7.479 7.479 0 0 1 0 6.159c-1.49 3.494-2.713 6.149-2.713 6.149s-2.212 14.532-2.584 14.904c-.373.373.5 21.915.5 21.915l1.84.989 2.223-20.319 5.402-18.84s.373-9.234 6.776-7.627a5.017 5.017 0 0 1 4.552 3.33c1.478 3.435-1.851 25.35-1.851 25.35l-.117 22.904 1.164 17.769 3.947-11.819s1.478-17.245 12.48-17.885c0 0 3.271-.338 3.772 1.967.501 2.306-2.142 6.731-2.142 11.167 0 3.109.174 6.637.256 8.454a6.774 6.774 0 0 1-.279 2.41c-1.025 3.435-3.97 13.449-5.193 18.969-1.478 6.73-14.063 26.956-14.063 26.956s-11.083 11.819-16.741 17.979c-2.852 3.097-11.405 23.346-15.817 35.77"></path>
  <path fill="#fff" d="M111.76 292.023a7.051 7.051 0 0 1-1.665 6.637"></path>
  <path stroke="#263238" stroke-miterlimit="10" d="M111.76 292.023a7.051 7.051 0 0 1-1.665 6.637"></path>
  <path fill="#fff" d="M92.981 308.302c1.595-2.481 3.155-5.881 2.725-8.792-.839-5.717-3.493-12.296-2.27-17.955.745-3.61 1.501-7.231 2.246-10.841"></path>
  <path stroke="#263238" stroke-miterlimit="10" d="M92.981 308.302c1.595-2.481 3.155-5.881 2.725-8.792-.839-5.717-3.493-12.296-2.27-17.955.745-3.61 1.501-7.231 2.246-10.841M139.397 254.296a11.416 11.416 0 0 1 5.821 0v-1.619M124.146 247.018a3.708 3.708 0 0 0 3.857.218 3.711 3.711 0 0 0 1.964-3.327M166.185 287.447a7.136 7.136 0 0 0-5.344 7.371l2.853.85"></path>
  <path fill="#fff" d="M128.722 288.867c.128 1.957-.117 6.626 0 8.571v-8.571Z"></path>
  <path stroke="#263238" stroke-miterlimit="10" d="M128.722 288.867c.128 1.957-.117 6.626 0 8.571"></path>
  <path fill="#fff" d="M130.863 291.569c-.232 3.206-.469 6.408-.71 9.606v-1.222"></path>
  <path stroke="#263238" stroke-miterlimit="10" d="M130.863 291.569c-.232 3.206-.469 6.408-.71 9.606v-1.222"></path>
  <path fill="#fff" d="M148.594 318.56c.845 3.539.459 7.26-1.094 10.55l1.094-10.55Z"></path>
  <path stroke="#263238" stroke-miterlimit="10" d="M148.594 318.56c.845 3.539.459 7.26-1.094 10.55M119.117 301.781c-2.537 2.783-2.165 9.455-.372 13.135M137.872 306.369a13.138 13.138 0 0 1-3.108 8.547M100.631 303.108a11.914 11.914 0 0 0 1.734 8.151M89.826 311.807a9.96 9.96 0 0 0 1.793 6.218M104.634 258.115a3.715 3.715 0 0 1 4.075.664l1.467-1.91M116.579 266.673a4.812 4.812 0 0 1 6.159 1.037M135.229 272.495a7.775 7.775 0 0 1 6.625.14M93.726 282.265a6.303 6.303 0 0 1 6.1-3.028M85.915 293.397a3.306 3.306 0 0 1 2.76-3.097"></path>
  <path fill="#fff" stroke="#263238" stroke-linecap="round" stroke-linejoin="round" d="M391.908 14.727 1.325 16.567l5.903-8.85A15.333 15.333 0 0 1 19.964.847h353.399a15.283 15.283 0 0 1 11.921 5.705l6.624 8.175Z"></path>
  <path fill="#757575" stroke="#263238" stroke-linecap="round" stroke-linejoin="round" d="M203.404 73.286h-21.398c-21.957 0-39.757 17.803-39.757 39.765v21.402c0 21.962 17.8 39.765 39.757 39.765h21.398c21.957 0 39.756-17.803 39.756-39.765v-21.402c0-21.962-17.799-39.765-39.756-39.765Z"></path>
  <path fill="#999" stroke="#263238" stroke-linecap="round" stroke-linejoin="round" d="M160.585 132.287v14.346a8.15 8.15 0 0 0 8.149 8.151h49.21a8.153 8.153 0 0 0 8.15-8.093c.069-6.463.407-14.404.407-14.404h-65.916Z"></path>
  <path fill="#fff" stroke="#263238" stroke-linecap="round" stroke-linejoin="round" d="M340.685 137.073H52.899a7.37 7.37 0 0 1-6.869-4.658L1.64 18.43a4.542 4.542 0 0 1 4.237-6.195H387.73a4.54 4.54 0 0 1 4.18 6.195l-44.391 113.95a7.372 7.372 0 0 1-6.833 4.693Z"></path>
  <path fill="#fff" d="M342.826 127.14H50.069L9.79 19.454H382.92L342.826 127.14Z"></path>
  <path fill="#263238" d="M226.163 136.922h-65.264v4.471h65.264v-4.471Z"></path>
  <path fill="#38BFF2" d="M300.066 122.529H93.331c-1.164 0-2.212-.512-2.422-1.164L61.502 27.92c-.326-1.048.594-1.898 2.06-1.898h266.273c1.466 0 2.386.85 2.048 1.898l-29.395 93.445c-.221.64-1.292 1.164-2.422 1.164Z"></path>
  <path fill="#263238" d="M297.994 120.398H95.426a1.743 1.743 0 0 1-1.688-1.257L69.802 40.588a1.77 1.77 0 0 1 1.7-2.328h250.392a1.773 1.773 0 0 1 1.77 1.497c.043.279.019.564-.07.832l-23.912 78.552a1.763 1.763 0 0 1-1.688 1.257Z"></path>
  <path fill="#fff" d="M123.552 58.684H84.703c-.966 0-1.594.512-1.408 1.164a2.119 2.119 0 0 0 2.049 1.165h38.627c.955 0 1.63-.513 1.525-1.165-.104-.652-.989-1.164-1.944-1.164ZM124.844 65.775h-33.04c-.942 0-1.56.5-1.396 1.164a2.061 2.061 0 0 0 1.99 1.165h32.912c.943 0 1.607-.5 1.502-1.165-.105-.663-1.025-1.164-1.968-1.164Z"></path>
  <path fill="#fff" d="M126.102 72.622H88.616c-.932 0-1.537.477-1.374 1.071a2.06 2.06 0 0 0 1.979 1.095h37.254c.919 0 1.583-.478 1.478-1.072-.105-.593-.919-1.094-1.851-1.094Z" opacity=".5"></path>
  <path fill="#fff" d="M127.313 79.236h-22.015c-.908 0-1.536.466-1.397 1.036.14.57.99 1.036 1.898 1.036h21.898c.908 0 1.56-.465 1.455-1.036-.104-.57-.919-1.036-1.839-1.036ZM128.489 85.617h-36.23c-.884 0-1.49.454-1.327 1.001.163.547 1.001 1.002 1.898 1.002h36.09c.884 0 1.525-.443 1.432-1.002-.094-.559-.967-1.001-1.863-1.001ZM129.618 91.8h-29.245c-.885 0-1.478.43-1.339.966.14.536.967.967 1.84.967h29.104c.874 0 1.502-.43 1.409-.967-.093-.535-.885-.966-1.769-.966ZM130.713 97.773h-28.767c-.874 0-1.456.42-1.316.932.14.512.943.943 1.805.943h28.627c.861 0 1.478-.419 1.385-.943-.093-.524-.861-.931-1.734-.931ZM131.772 103.549h-31.433c-.85 0-1.432.408-1.292.908.14.501.93.909 1.781.909h31.235c.85 0 1.467-.408 1.374-.909-.094-.5-.804-.908-1.665-.908Z"></path>
  <path fill="#fff" d="M132.808 109.15h-20.304c-.838 0-1.42.396-1.304.885.117.489.897.873 1.723.873h20.176c.838 0 1.443-.396 1.362-.873-.082-.478-.815-.885-1.653-.885ZM122.202 51.325H93.249c-.978 0-1.63.535-1.455 1.164a2.107 2.107 0 0 0 2.06 1.164h28.779c.978 0 1.665-.535 1.548-1.164a1.932 1.932 0 0 0-1.979-1.164Z" opacity=".5"></path>
  <path fill="#fff" d="M120.794 43.698H80.49c-.99 0-1.642.547-1.444 1.234a2.223 2.223 0 0 0 2.142 1.234h40.071c.978 0 1.688-.547 1.56-1.234-.128-.687-1.001-1.234-2.025-1.234ZM133.798 114.576h-33.401c-.826 0-1.385.384-1.257.85.128.466.908.85 1.734.85h33.238c.815 0 1.42-.384 1.339-.85-.082-.466-.827-.85-1.653-.85Z"></path><path fill="#fff" d="M137.197 61.269h7.533l-.373-2.876h-7.59l.43 2.876ZM138.245 68.267h7.404l-.361-2.771h-7.462l.419 2.77ZM139.258 75.032h7.276l-.349-2.678h-7.323l.396 2.678ZM140.247 81.565h7.148l-.349-2.597h-7.194l.395 2.597ZM141.19 87.864h7.032l-.338-2.492h-7.066l.372 2.492ZM142.11 93.966h6.903l-.314-2.41h-6.962l.373 2.41ZM142.995 99.881h6.799l-.303-2.352h-6.845l.349 2.352ZM143.844 105.587h6.694l-.291-2.259h-6.741l.338 2.259ZM144.682 111.129h6.59l-.291-2.2h-6.625l.326 2.2ZM136.103 54.014h7.672l-.385-2.992h-7.73l.443 2.992ZM134.973 46.48h7.812l-.396-3.097h-7.881l.465 3.097ZM145.486 116.486h6.484l-.279-2.131h-6.52l.315 2.131Z" opacity=".5"></path><path fill="#fff" d="M185.196 104.457c0-.5.652-.908 1.502-.908H298.25c.85 0 1.432.408 1.281.908a1.893 1.893 0 0 1-1.793.909H186.756c-.85 0-1.548-.408-1.56-.909ZM299.379 99.648h-61.771c-.862 0-1.514-.419-1.455-.943.058-.524.803-.931 1.676-.931h62.109c.862 0 1.444.419 1.292.931a1.893 1.893 0 0 1-1.851.943Z"></path><path fill="#fff" d="M222.95 99.648h-19.209c-.861 0-1.56-.419-1.548-.943.012-.524.71-.931 1.583-.931h19.326c.861 0 1.536.419 1.49.931-.047.512-.78.943-1.642.943Z" opacity=".5"></path><path fill="#fff" d="M263.045 93.733h-87.128c-.873 0-1.606-.43-1.641-.967-.035-.535.652-.966 1.536-.966h87.593c.874 0 1.514.43 1.409.966-.105.536-.885.967-1.769.967Z"></path>
  <path fill="#fff" d="M157.71 91.8h6.205c.873 0 1.63.43 1.677.966.046.536-.629.967-1.502.967h-6.182c-.873 0-1.63-.43-1.688-.967-.058-.535.605-.966 1.49-.966Z" opacity=".5"></path>
  <path fill="#fff" d="M275.653 86.618c-.116.56-.931 1.002-1.828 1.002h-82.098c-.896 0-1.618-.443-1.63-1.002-.011-.559.71-1.001 1.595-1.001h82.552c.897 0 1.525.454 1.409 1.001ZM157.047 85.617h23.283c.897 0 1.642.454 1.665 1.001.023.547-.687 1.002-1.572 1.002h-23.167c-.885 0-1.653-.443-1.723-1.002-.07-.559.617-1.001 1.514-1.001ZM156.359 79.236h89.572c.908 0 1.584.466 1.502 1.036-.081.57-.873 1.036-1.781 1.036H156.58c-.896 0-1.688-.465-1.746-1.036-.058-.57.617-1.036 1.525-1.036ZM214.51 74.788c-.919 0-1.641-.478-1.618-1.072.023-.593.792-1.07 1.723-1.07h47.254c.932 0 1.595.477 1.49 1.07-.104.594-.931 1.072-1.851 1.072H214.51ZM155.661 72.622h40.897c.932 0 1.677.477 1.677 1.071s-.745 1.095-1.677 1.095h-40.665c-.931 0-1.723-.478-1.792-1.072-.07-.593.628-1.094 1.56-1.094ZM308.46 68H195.872c-.932 0-1.7-.502-1.7-1.165 0-.664.757-1.165 1.7-1.165h113.216c.943 0 1.56.5 1.386 1.165a2.113 2.113 0 0 1-2.014 1.164ZM310.416 60.978H211.46c-.955 0-1.711-.513-1.688-1.165.023-.652.815-1.164 1.781-1.164h99.631c.955 0 1.583.512 1.397 1.164a2.145 2.145 0 0 1-2.165 1.165Z"></path>
  <path fill="#fff" d="M312.557 53.712h-20.768c-.978 0-1.642-.536-1.491-1.165a2.066 2.066 0 0 1 2.049-1.164h20.862c.978 0 1.619.535 1.421 1.164a2.191 2.191 0 0 1-2.073 1.165Z" opacity=".5"></path>
  <path fill="#fff" d="M277.294 53.712h-76.172c-.966 0-1.758-.536-1.746-1.165.011-.629.791-1.164 1.769-1.164h76.673c.978 0 1.665.535 1.525 1.164a2 2 0 0 1-2.049 1.165ZM159.549 109.15h70.352c.838 0 1.478.396 1.42.885-.058.489-.757.873-1.595.873h-69.979c-.838 0-1.56-.396-1.606-.873-.047-.478.57-.885 1.408-.885ZM160.131 114.576h108.083c.815 0 1.409.384 1.304.85-.105.466-.838.85-1.665.85H160.318c-.827 0-1.537-.384-1.584-.85-.046-.466.571-.85 1.397-.85ZM273.511 46.166h-55.066c-.989 0-1.758-.547-1.723-1.234.035-.687.862-1.234 1.863-1.234h55.392c1.001 0 1.7.547 1.571 1.234a2.013 2.013 0 0 1-2.037 1.234Z"></path><path fill="#fff" d="M202.892 46.166h-50.06c-.99 0-1.851-.547-1.933-1.234-.081-.687.664-1.234 1.665-1.234h50.351c.989 0 1.793.547 1.781 1.234-.012.687-.815 1.234-1.804 1.234ZM245.501 109.15c.838 0 1.467.396 1.397.885-.07.489-.803.873-1.642.873h-5.436c-.827 0-1.456-.396-1.397-.873.058-.478.78-.885 1.618-.885h5.46ZM178.782 104.457c0 .501-.641.909-1.491.909h-7.404c-.85 0-1.571-.408-1.606-.909-.035-.5.617-.908 1.467-.908h7.439c.861 0 1.571.408 1.595.908ZM268.132 80.272c-.104.57-.919 1.036-1.827 1.036h-8.662c-.908 0-1.56-.465-1.478-1.036.081-.57.908-1.036 1.816-1.036h8.708c.908 0 1.56.466 1.443 1.036ZM295.153 85.617c.897 0 1.502.454 1.351 1.001a1.928 1.928 0 0 1-1.875 1.002h-6.903c-.897 0-1.502-.443-1.374-1.002a1.895 1.895 0 0 1 1.863-1.001h6.938ZM182.239 68c-.931 0-1.711-.502-1.746-1.165-.035-.664.722-1.165 1.665-1.165h7.346c.943 0 1.711.5 1.723 1.165.011.663-.745 1.164-1.677 1.164h-7.311Z" opacity=".5"></path><path fill="#fff" d="M82.236 32.146a2.482 2.482 0 0 1-2.445 3.435 5.192 5.192 0 0 1-4.587-3.435 2.493 2.493 0 0 1 2.422-3.493 5.145 5.145 0 0 1 4.61 3.493ZM91.666 32.205a2.55 2.55 0 0 1-2.561 3.423 4.96 4.96 0 0 1-4.47-3.423 2.574 2.574 0 0 1 2.537-3.494 4.936 4.936 0 0 1 4.494 3.494ZM101.246 32.146a2.634 2.634 0 0 1-.445 2.438 2.637 2.637 0 0 1-2.267.997 4.773 4.773 0 0 1-4.366-3.435 2.655 2.655 0 0 1 2.655-3.493 4.726 4.726 0 0 1 4.423 3.493Z"></path>
  <path fill="#fff" stroke="#263238" stroke-linecap="round" stroke-linejoin="round" d="M93.05 173.88H68.499a5.82 5.82 0 0 0-5.82 5.822v11.959a5.823 5.823 0 0 0 5.82 5.822h6.415l4.866 11.027 6.857-11.027h6.415a5.82 5.82 0 0 0 5.82-5.822v-12.005a5.824 5.824 0 0 0-5.82-5.776Z"></path>
  <path fill="#263238" d="M77.358 180.75a1.165 1.165 0 0 1 2.328-.081 1.163 1.163 0 0 1-1.164 1.164 1.162 1.162 0 0 1-1.164-1.083Zm.256 2.434h1.874v7.988H77.58l.035-7.988ZM83.993 182.742v.477h2.2v1.502h-2.13v6.428h-1.827v-6.428h-1.362v-1.502h1.362v-.512a2.575 2.575 0 0 1 2.852-2.76 2.98 2.98 0 0 1 1.7.431l-.524 1.409a1.845 1.845 0 0 0-1.036-.326c-.827 0-1.234.454-1.234 1.281Z"></path>
  <path fill="#fff" stroke="#263238" stroke-linecap="round" stroke-linejoin="round" d="M167.815 175.557h-24.564a5.818 5.818 0 0 0-5.821 5.822v11.947a5.822 5.822 0 0 0 5.821 5.822h6.426l4.855 11.027 6.857-11.027h6.426a5.82 5.82 0 0 0 5.821-5.822v-11.993a5.824 5.824 0 0 0-5.821-5.776Z"></path>
  <path fill="#263238" d="M148.42 189.425h-6.275a2.434 2.434 0 0 0 2.596 1.922 2.86 2.86 0 0 0 2.165-.874l1.001 1.165a4.485 4.485 0 0 1-4.701 1.03 4.483 4.483 0 0 1-2.924-3.825 3.97 3.97 0 0 1 4.121-4.087 3.892 3.892 0 0 1 3.805 2.534c.19.511.27 1.056.235 1.6 0 .128-.012.361-.023.535Zm-6.287-1.234h4.529a2.178 2.178 0 0 0-2.259-1.956 2.2 2.2 0 0 0-2.27 1.956ZM150.236 181.729h1.851v11.097h-1.874l.023-11.097ZM153.646 192.034l.711-1.421c.837.513 1.8.787 2.782.792 1.164 0 1.676-.326 1.676-.885 0-1.525-4.936-.093-4.936-3.272 0-1.514 1.362-2.504 3.493-2.504a6.432 6.432 0 0 1 2.992.687l-.722 1.421a4.4 4.4 0 0 0-2.328-.594c-1.165 0-1.677.373-1.677.897 0 1.618 4.936.174 4.936 3.307 0 1.49-1.373 2.468-3.62 2.468a6.391 6.391 0 0 1-3.307-.896ZM169.736 189.425h-6.275a2.431 2.431 0 0 0 2.596 1.922 2.874 2.874 0 0 0 2.166-.874l1.001 1.165a4.488 4.488 0 0 1-6.721-.457 4.495 4.495 0 0 1-.905-2.338 3.971 3.971 0 0 1 4.122-4.087 3.897 3.897 0 0 1 2.94 1.167 3.892 3.892 0 0 1 1.099 2.967c0 .128-.011.361-.023.535Zm-6.286-1.234h4.528a2.178 2.178 0 0 0-2.258-1.956 2.2 2.2 0 0 0-2.27 1.956Z"></path>
  <path fill="#fff" stroke="#263238" stroke-linecap="round" stroke-linejoin="round" d="M240.297 174.847h-24.564a5.82 5.82 0 0 0-5.821 5.822v11.959a5.82 5.82 0 0 0 5.821 5.822h6.426l4.855 11.027 6.857-11.027h6.426a5.819 5.819 0 0 0 5.821-5.822v-12.006a5.82 5.82 0 0 0-5.821-5.775Z"></path>
  <path fill="#263238" d="M221.367 183.708v.536h2.201v1.502h-2.142v6.427h-1.817v-6.427h-1.315v-1.502h1.315v-.513a2.575 2.575 0 0 1 2.853-2.759 2.95 2.95 0 0 1 1.688.431l-.524 1.408a1.79 1.79 0 0 0-1.025-.337c-.826-.058-1.234.384-1.234 1.234ZM224.045 188.121a4.269 4.269 0 0 1 2.517-4.053 4.267 4.267 0 0 1 4.699.823 4.263 4.263 0 0 1-2.967 7.329 4.014 4.014 0 0 1-4.249-4.099Zm6.624 0a2.33 2.33 0 0 0-2.874-2.099 2.325 2.325 0 0 0-1.742 1.865 2.323 2.323 0 0 0 1.013 2.342 2.324 2.324 0 0 0 2.982-.355 2.331 2.331 0 0 0 .621-1.753ZM238.958 184.034v1.782a2.819 2.819 0 0 0-.431 0 2.174 2.174 0 0 0-2.328 2.468v3.878h-1.875v-8.035h1.781v1.165a3.15 3.15 0 0 1 2.853-1.258Z"></path>
  <path fill="#fff" stroke="#263238" stroke-linecap="round" stroke-linejoin="round" d="M311.731 173.88h-24.599a5.82 5.82 0 0 0-5.821 5.822v11.959a5.822 5.822 0 0 0 5.821 5.822h6.426l4.855 11.027 6.857-11.027h6.426a5.818 5.818 0 0 0 5.821-5.822v-12.005a5.822 5.822 0 0 0-5.786-5.776Z"></path>
  <path fill="#263238" d="M296.259 182.765h6.892v1.479h-6.892v-1.479Zm0 3.621h6.892v1.502h-6.892v-1.502Z"></path>
  <path fill="#fff" stroke="#263238" stroke-linecap="round" stroke-linejoin="round" d="M130.491 160.059h-24.564a5.818 5.818 0 0 0-5.821 5.822v11.947a5.822 5.822 0 0 0 5.821 5.822h6.426l4.855 11.027 6.857-11.027h6.426a5.824 5.824 0 0 0 5.821-5.822v-11.994a5.823 5.823 0 0 0-5.821-5.775Z"></path>
  <path fill="#263238" d="M112.435 165.019h3.562v1.502h-1.7v11.004h1.7v1.502h-3.562v-14.008ZM120.654 179.027v-1.502h1.688v-11.004h-1.688v-1.502h3.492v13.973l-3.492.035Z"></path>
  <path fill="#fff" stroke="#263238" stroke-linecap="round" stroke-linejoin="round" d="M203.509 158.836h-24.564a5.82 5.82 0 0 0-5.821 5.822v11.9a5.82 5.82 0 0 0 5.821 5.823h6.426l4.866 11.027 6.858-11.027h6.414a5.819 5.819 0 0 0 5.821-5.823v-11.947a5.821 5.821 0 0 0-5.821-5.775Z"></path>
  <path fill="#263238" d="M186.232 170.748c.594.198.885.606.885 1.525v2.853a.999.999 0 0 0 .647 1.113c.147.052.304.07.459.052h.314v1.502h-.757a2.23 2.23 0 0 1-2.538-2.445v-3.075c0-.5-.256-.722-.675-.722h-.489v-1.525h.489c.419 0 .675-.221.675-.722v-3.086a2.207 2.207 0 0 1 1.534-2.357 2.19 2.19 0 0 1 1.004-.076h.757v1.502h-.361a.994.994 0 0 0-.851.299.997.997 0 0 0-.255.865v2.841c.047.862-.244 1.27-.838 1.456ZM197.641 169.991v1.526h-.512c-.407 0-.664.221-.664.721v3.075a2.234 2.234 0 0 1-2.549 2.445h-.757v-1.502h.315a1.016 1.016 0 0 0 1.129-.69 1.02 1.02 0 0 0 .035-.475v-2.853c0-.919.267-1.327.861-1.525-.594-.186-.861-.594-.861-1.525v-2.842a1.004 1.004 0 0 0-.687-1.135 1.001 1.001 0 0 0-.477-.029h-.315v-1.432h.757a2.222 2.222 0 0 1 2.549 2.433v3.086c0 .501.257.722.664.722h.512Z"></path>
  <path fill="#fff" stroke="#263238" stroke-linecap="round" stroke-linejoin="round" d="M275.758 156.414h-24.564a5.82 5.82 0 0 0-5.821 5.822v11.947a5.822 5.822 0 0 0 5.821 5.822h6.415l4.866 11.027 6.857-11.027h6.426a5.818 5.818 0 0 0 5.821-5.822v-11.994a5.82 5.82 0 0 0-5.821-5.775Z"></path>
  <path fill="#263238" d="M262.498 165.252a1.234 1.234 0 1 1 2.456 0 1.234 1.234 0 1 1-2.456 0Zm2.456 5.706c-.031.445-.15.88-.349 1.28l-.768 2.12h-1.164l.605-2.329a1.163 1.163 0 0 1-.71-1.106 1.218 1.218 0 0 1 2.077-.861c.228.228.356.538.356.861l-.047.035Z"></path>
  <path fill="#fff" stroke="#263238" stroke-linecap="round" stroke-linejoin="round" d="M179.736 365.358h24.553a5.821 5.821 0 0 0 5.82-5.822v-11.912a5.82 5.82 0 0 0-5.82-5.764h-6.415L196 330.833l-9.849 11.027h-6.415a5.823 5.823 0 0 0-5.821 5.764v11.959a5.823 5.823 0 0 0 5.821 5.775Z"></path>
  <path fill="#263238" d="m188.363 351.152-5.158 1.933 5.158 1.933v1.561l-6.892-2.678v-1.631l6.892-2.678v1.56ZM193.812 345.715h1.664l-4.971 14.101h-1.63l4.937-14.101ZM202.729 352.27v1.619l-6.892 2.678v-1.56l5.146-1.922-5.158-1.921v-1.572l6.904 2.678Z"></path>
  <path fill="#fff" stroke="#263238" stroke-linecap="round" stroke-linejoin="round" d="M23.595 278.318h24.553a5.82 5.82 0 0 0 5.82-5.823v-11.9a5.823 5.823 0 0 0-5.82-5.822h-6.415l1.397-11.027-13.12 11.027h-6.415a5.82 5.82 0 0 0-5.82 5.822v11.947a5.824 5.824 0 0 0 5.82 5.776Z"></path>
  <path fill="#263238" d="M30.872 270.737a1.162 1.162 0 0 1 1.987-.823 1.163 1.163 0 0 1 0 1.647 1.166 1.166 0 0 1-1.987-.824Zm.14-9.408h2.212l-.373 6.986h-1.513l-.326-6.986ZM35.121 264.007h6.892v1.502h-6.892v-1.502Zm0 3.621h6.892v1.502h-6.892v-1.502Z"></path>
</svg>